<svg id="visual" viewBox="0 0 960 300" width="960" height="300" xmlns="http://www.w3.org/2000/svg" xmlns:xlink="http://www.w3.org/1999/xlink" version="1.1"><path d="M0 244L22.8 241.2C45.7 238.3 91.3 232.7 137 228.5C182.7 224.3 228.3 221.7 274 223.8C319.7 226 365.3 233 411.2 235.8C457 238.7 503 237.3 548.8 233.8C594.7 230.3 640.3 224.7 686 221.2C731.7 217.7 777.3 216.3 823 220.8C868.7 225.3 914.3 235.7 937.2 240.8L960 246L960 301L937.2 301C914.3 301 868.7 301 823 301C777.3 301 731.7 301 686 301C640.3 301 594.7 301 548.8 301C503 301 457 301 411.2 301C365.3 301 319.7 301 274 301C228.3 301 182.7 301 137 301C91.3 301 45.7 301 22.8 301L0 301Z" fill="#0f0155"></path><path d="M0 252L22.8 251.2C45.7 250.3 91.3 248.7 137 243.8C182.7 239 228.3 231 274 229C319.7 227 365.3 231 411.2 230.7C457 230.3 503 225.7 548.8 225.7C594.7 225.7 640.3 230.3 686 236C731.7 241.7 777.3 248.3 823 246.8C868.7 245.3 914.3 235.7 937.2 230.8L960 226L960 301L937.2 301C914.3 301 868.7 301 823 301C777.3 301 731.7 301 686 301C640.3 301 594.7 301 548.8 301C503 301 457 301 411.2 301C365.3 301 319.7 301 274 301C228.3 301 182.7 301 137 301C91.3 301 45.7 301 22.8 301L0 301Z" fill="#0b1363"></path><path d="M0 271L22.8 270.2C45.7 269.3 91.3 267.7 137 263.8C182.7 260 228.3 254 274 249.2C319.7 244.3 365.3 240.7 411.2 243.5C457 246.3 503 255.7 548.8 261.3C594.7 267 640.3 269 686 266.5C731.7 264 777.3 257 823 254.5C868.7 252 914.3 254 937.2 255L960 256L960 301L937.2 301C914.3 301 868.7 301 823 301C777.3 301 731.7 301 686 301C640.3 301 594.7 301 548.8 301C503 301 457 301 411.2 301C365.3 301 319.7 301 274 301C228.3 301 182.7 301 137 301C91.3 301 45.7 301 22.8 301L0 301Z" fill="#052371"></path><path d="M0 267L22.8 268.8C45.7 270.7 91.3 274.3 137 274.8C182.7 275.3 228.3 272.7 274 269.3C319.7 266 365.3 262 411.2 257.8C457 253.7 503 249.3 548.8 250.5C594.7 251.7 640.3 258.3 686 260.2C731.7 262 777.3 259 823 255.7C868.7 252.3 914.3 248.7 937.2 246.8L960 245L960 301L937.2 301C914.3 301 868.7 301 823 301C777.3 301 731.7 301 686 301C640.3 301 594.7 301 548.8 301C503 301 457 301 411.2 301C365.3 301 319.7 301 274 301C228.3 301 182.7 301 137 301C91.3 301 45.7 301 22.8 301L0 301Z" fill="#00327e"></path><path d="M0 284L22.8 281.2C45.7 278.3 91.3 272.7 137 272C182.7 271.3 228.3 275.7 274 274.3C319.7 273 365.3 266 411.2 262C457 258 503 257 548.8 258C594.7 259 640.3 262 686 263.5C731.7 265 777.3 265 823 267.8C868.7 270.7 914.3 276.3 937.2 279.2L960 282L960 301L937.2 301C914.3 301 868.7 301 823 301C777.3 301 731.7 301 686 301C640.3 301 594.7 301 548.8 301C503 301 457 301 411.2 301C365.3 301 319.7 301 274 301C228.3 301 182.7 301 137 301C91.3 301 45.7 301 22.8 301L0 301Z" fill="#00408a"></path><path d="M0 280L22.8 278.2C45.7 276.3 91.3 272.7 137 274.3C182.7 276 228.3 283 274 283.8C319.7 284.7 365.3 279.3 411.2 277.2C457 275 503 276 548.8 277.3C594.7 278.7 640.3 280.3 686 281C731.7 281.7 777.3 281.3 823 281.5C868.7 281.7 914.3 282.3 937.2 282.7L960 283L960 301L937.2 301C914.3 301 868.7 301 823 301C777.3 301 731.7 301 686 301C640.3 301 594.7 301 548.8 301C503 301 457 301 411.2 301C365.3 301 319.7 301 274 301C228.3 301 182.7 301 137 301C91.3 301 45.7 301 22.8 301L0 301Z" fill="#004f95"></path><path d="M0 280L22.8 280.7C45.7 281.3 91.3 282.7 137 282.8C182.7 283 228.3 282 274 283C319.7 284 365.3 287 411.2 289.7C457 292.3 503 294.7 548.8 294C594.7 293.3 640.3 289.7 686 287.5C731.7 285.3 777.3 284.7 823 283.7C868.7 282.7 914.3 281.3 937.2 280.7L960 280L960 301L937.2 301C914.3 301 868.7 301 823 301C777.3 301 731.7 301 686 301C640.3 301 594.7 301 548.8 301C503 301 457 301 411.2 301C365.3 301 319.7 301 274 301C228.3 301 182.7 301 137 301C91.3 301 45.7 301 22.8 301L0 301Z" fill="#005d9f"></path></svg>