<svg id="visual" viewBox="0 0 960 300" width="960" height="300" xmlns="http://www.w3.org/2000/svg" xmlns:xlink="http://www.w3.org/1999/xlink" version="1.1"><path d="M0 78L22.8 73.8C45.7 69.7 91.3 61.3 137 54.2C182.7 47 228.3 41 274 47C319.7 53 365.3 71 411.2 78.2C457 85.3 503 81.7 548.8 71.7C594.7 61.7 640.3 45.3 686 46.3C731.7 47.3 777.3 65.7 823 67C868.7 68.3 914.3 52.7 937.2 44.8L960 37L960 0L937.2 0C914.3 0 868.7 0 823 0C777.3 0 731.7 0 686 0C640.3 0 594.7 0 548.8 0C503 0 457 0 411.2 0C365.3 0 319.7 0 274 0C228.3 0 182.7 0 137 0C91.3 0 45.7 0 22.8 0L0 0Z" fill="#004575"></path><path d="M0 24L22.8 22.5C45.7 21 91.3 18 137 19.5C182.7 21 228.3 27 274 35C319.7 43 365.3 53 411.2 54.7C457 56.3 503 49.7 548.8 45.5C594.7 41.3 640.3 39.7 686 37.3C731.7 35 777.3 32 823 30.3C868.7 28.7 914.3 28.3 937.2 28.2L960 28L960 0L937.2 0C914.3 0 868.7 0 823 0C777.3 0 731.7 0 686 0C640.3 0 594.7 0 548.8 0C503 0 457 0 411.2 0C365.3 0 319.7 0 274 0C228.3 0 182.7 0 137 0C91.3 0 45.7 0 22.8 0L0 0Z" fill="#005d9f"></path><path d="M0 10L22.8 11.3C45.7 12.7 91.3 15.3 137 17C182.7 18.7 228.3 19.3 274 23.2C319.7 27 365.3 34 411.2 36.2C457 38.3 503 35.7 548.8 29.8C594.7 24 640.3 15 686 10.7C731.7 6.3 777.3 6.7 823 11C868.7 15.3 914.3 23.7 937.2 27.8L960 32L960 0L937.2 0C914.3 0 868.7 0 823 0C777.3 0 731.7 0 686 0C640.3 0 594.7 0 548.8 0C503 0 457 0 411.2 0C365.3 0 319.7 0 274 0C228.3 0 182.7 0 137 0C91.3 0 45.7 0 22.8 0L0 0Z" fill="#3881bf"></path></svg>