<svg id="visual" viewBox="0 0 960 300" width="960" height="300" xmlns="http://www.w3.org/2000/svg" xmlns:xlink="http://www.w3.org/1999/xlink" version="1.1"><path d="M0 267L22.8 266.3C45.7 265.7 91.3 264.3 137 260.3C182.7 256.3 228.3 249.7 274 247C319.7 244.3 365.3 245.7 411.2 240.2C457 234.7 503 222.3 548.8 218C594.7 213.7 640.3 217.3 686 223.2C731.7 229 777.3 237 823 240.5C868.7 244 914.3 243 937.2 242.5L960 242L960 301L937.2 301C914.3 301 868.7 301 823 301C777.3 301 731.7 301 686 301C640.3 301 594.7 301 548.8 301C503 301 457 301 411.2 301C365.3 301 319.7 301 274 301C228.3 301 182.7 301 137 301C91.3 301 45.7 301 22.8 301L0 301Z" fill="#004575"></path><path d="M0 259L22.8 260.5C45.7 262 91.3 265 137 268.8C182.7 272.7 228.3 277.3 274 276C319.7 274.7 365.3 267.3 411.2 260.8C457 254.3 503 248.7 548.8 249.3C594.7 250 640.3 257 686 258C731.7 259 777.3 254 823 256.8C868.7 259.7 914.3 270.3 937.2 275.7L960 281L960 301L937.2 301C914.3 301 868.7 301 823 301C777.3 301 731.7 301 686 301C640.3 301 594.7 301 548.8 301C503 301 457 301 411.2 301C365.3 301 319.7 301 274 301C228.3 301 182.7 301 137 301C91.3 301 45.7 301 22.8 301L0 301Z" fill="#005d9f"></path><path d="M0 291L22.8 291.7C45.7 292.3 91.3 293.7 137 293.8C182.7 294 228.3 293 274 286.5C319.7 280 365.3 268 411.2 263.8C457 259.7 503 263.3 548.8 269.2C594.7 275 640.3 283 686 281.2C731.7 279.3 777.3 267.7 823 264C868.7 260.3 914.3 264.7 937.2 266.8L960 269L960 301L937.2 301C914.3 301 868.7 301 823 301C777.3 301 731.7 301 686 301C640.3 301 594.7 301 548.8 301C503 301 457 301 411.2 301C365.3 301 319.7 301 274 301C228.3 301 182.7 301 137 301C91.3 301 45.7 301 22.8 301L0 301Z" fill="#3881bf"></path></svg>