<svg id="visual" viewBox="0 0 960 300" width="960" height="300" xmlns="http://www.w3.org/2000/svg" xmlns:xlink="http://www.w3.org/1999/xlink" version="1.1"><path d="M0 53L14.5 51.7C29 50.3 58 47.7 87.2 50.3C116.3 53 145.7 61 174.8 64.3C204 67.7 233 66.3 262 66.7C291 67 320 69 349 68.5C378 68 407 65 436.2 65C465.3 65 494.7 68 523.8 66.5C553 65 582 59 611 54.5C640 50 669 47 698 48.3C727 49.7 756 55.3 785.2 54.8C814.3 54.3 843.7 47.7 872.8 45C902 42.3 931 43.7 945.5 44.3L960 45L960 0L945.5 0C931 0 902 0 872.8 0C843.7 0 814.3 0 785.2 0C756 0 727 0 698 0C669 0 640 0 611 0C582 0 553 0 523.8 0C494.7 0 465.3 0 436.2 0C407 0 378 0 349 0C320 0 291 0 262 0C233 0 204 0 174.8 0C145.7 0 116.3 0 87.2 0C58 0 29 0 14.5 0L0 0Z" fill="#591f9f"></path><path d="M0 47L14.5 43.7C29 40.3 58 33.7 87.2 34.3C116.3 35 145.7 43 174.8 47.2C204 51.3 233 51.7 262 51.8C291 52 320 52 349 51.3C378 50.7 407 49.3 436.2 47.5C465.3 45.7 494.7 43.3 523.8 42.5C553 41.7 582 42.3 611 41.2C640 40 669 37 698 33.7C727 30.3 756 26.7 785.2 27.3C814.3 28 843.7 33 872.8 37C902 41 931 44 945.5 45.5L960 47L960 0L945.5 0C931 0 902 0 872.8 0C843.7 0 814.3 0 785.2 0C756 0 727 0 698 0C669 0 640 0 611 0C582 0 553 0 523.8 0C494.7 0 465.3 0 436.2 0C407 0 378 0 349 0C320 0 291 0 262 0C233 0 204 0 174.8 0C145.7 0 116.3 0 87.2 0C58 0 29 0 14.5 0L0 0Z" fill="#350072"></path><path d="M0 21L14.5 20.5C29 20 58 19 87.2 18.3C116.3 17.7 145.7 17.3 174.8 18.2C204 19 233 21 262 22.2C291 23.3 320 23.7 349 22.3C378 21 407 18 436.2 18.2C465.3 18.3 494.7 21.7 523.8 24.2C553 26.7 582 28.3 611 27.5C640 26.7 669 23.3 698 23.2C727 23 756 26 785.2 24.2C814.3 22.3 843.7 15.7 872.8 13.3C902 11 931 13 945.5 14L960 15L960 0L945.5 0C931 0 902 0 872.8 0C843.7 0 814.3 0 785.2 0C756 0 727 0 698 0C669 0 640 0 611 0C582 0 553 0 523.8 0C494.7 0 465.3 0 436.2 0C407 0 378 0 349 0C320 0 291 0 262 0C233 0 204 0 174.8 0C145.7 0 116.3 0 87.2 0C58 0 29 0 14.5 0L0 0Z" fill="#230a55"></path></svg>