<?xml version="1.0" encoding="UTF-8"?>
<svg version="1.1" xmlns="http://www.w3.org/2000/svg" width="2034" height="1038">
<path d="M0 0 C8.16407963 6.62423543 14.88247524 16.32143005 16 27 C16.90834728 41.69871056 14.48857838 52.58482987 5.25390625 64.1953125 C-1.721844 71.82367971 -10.05508589 75.67911473 -20.1875 77.1875 C-28.53907134 78.77173448 -31.33047316 83.30673506 -36 90 C-37.74462249 92.1453142 -39.56091508 94.22585864 -41.375 96.3125 C-46.13710115 101.89427988 -50.6861716 107.62423145 -55.19140625 113.4140625 C-57.07057815 115.82534852 -58.9740572 118.21375204 -60.90234375 120.5859375 C-72.92504817 135.38311217 -83.90686005 150.82554091 -94 167 C-94.4232959 167.67756348 -94.8465918 168.35512695 -95.28271484 169.05322266 C-99.70051584 176.16518049 -103.85774493 183.21267222 -107 191 C-106.5153125 191.41507813 -106.030625 191.83015625 -105.53125 192.2578125 C-96.09228392 200.93440055 -88.44645354 213.4767435 -87.89306641 226.52050781 C-87.76020299 232.68324465 -87.83268952 238.83868424 -88 245 C-87.35240723 245.05406006 -86.70481445 245.10812012 -86.03759766 245.16381836 C-80.93044221 245.60703126 -75.85480714 246.13650468 -70.7734375 246.81640625 C-68.64073037 247.06600617 -66.50791674 247.31469763 -64.375 247.5625 C-62.77398438 247.79936523 -62.77398438 247.79936523 -61.140625 248.04101562 C-54.96721886 248.70961597 -54.96721886 248.70961597 -49.40820312 246.32739258 C-47.05024748 244.23724895 -47.05024748 244.23724895 -45.04638672 242.00341797 C-39.31853278 236.39583393 -30.24514129 234.88963968 -22.5 234.6875 C-10.65002938 234.84743825 -0.67353083 238.93611031 8 247 C15.67471909 255.8554451 19.42377167 265.70973472 19.20703125 277.453125 C18.30227892 288.58328576 14.0209194 298.58574824 5.8125 306.3125 C-4.84601175 314.62662254 -15.76100929 316.99048297 -29 316 C-41.16814607 313.47996975 -49.66021743 306.85161927 -57 297 C-58.98608431 293.54491841 -60.66288715 290.05919326 -61.31103516 286.10009766 C-62.06234663 281.91672521 -62.54785887 280.38304717 -65.9140625 277.53125 C-67.13558922 276.82667085 -68.37392656 276.15067237 -69.625 275.5 C-70.60641968 274.95098022 -70.60641968 274.95098022 -71.60766602 274.39086914 C-73.72127918 273.22448728 -75.85442198 272.1063956 -78 271 C-78.74975098 270.61183105 -79.49950195 270.22366211 -80.27197266 269.82373047 C-84.81850398 267.48665555 -89.39553253 265.22055133 -94 263 C-94.36351562 263.56847656 -94.72703125 264.13695312 -95.1015625 264.72265625 C-104.55197215 279.2375162 -115.50904742 287.62896962 -132 293 C-133.31838783 330.70589198 -126.9242205 368.0147342 -117.8125 404.5 C-117.5870752 405.42530518 -117.36165039 406.35061035 -117.12939453 407.30395508 C-115.90379708 411.93354487 -114.90859828 414.95587431 -111 418 C-110.36320312 418.54140625 -109.72640625 419.0828125 -109.0703125 419.640625 C-108.42835938 420.17171875 -107.78640625 420.7028125 -107.125 421.25 C-99.28679382 428.09750354 -92.83664897 437.3592165 -91.80712891 447.99194336 C-91.26837643 462.02073145 -92.52885146 473.84044706 -101.9921875 485.00390625 C-111.92077751 494.8745473 -123.88254224 499.28873972 -137.64868164 499.31689453 C-149.08625192 499.10821265 -158.86619555 494.78933355 -167.15625 486.96484375 C-176.67961786 476.89068409 -180.49146352 465.99579862 -180.25390625 452.3125 C-179.25638955 439.29874362 -173.61893488 428.72679084 -164 420 C-162.34960387 419.29401499 -160.68415976 418.62115066 -159 418 C-158.31613867 412.90464694 -157.64132454 407.80819052 -156.97363281 402.71069336 C-156.74706386 400.98968958 -156.51834279 399.26896726 -156.28710938 397.54858398 C-153.0121471 373.15155142 -151.69672776 349.08082671 -151.8626709 324.46966553 C-151.88362657 321.0156106 -151.89236756 317.56152286 -151.90234375 314.10742188 C-151.92339856 307.40487238 -151.95724164 300.7024455 -152 294 C-152.91525452 293.9087812 -152.91525452 293.9087812 -153.84899902 293.8157196 C-154.65357544 293.7317543 -155.45815186 293.647789 -156.28710938 293.5612793 C-157.48080139 293.439123 -157.48080139 293.439123 -158.6986084 293.3144989 C-167.61447054 292.09609311 -175.97414334 287.43332915 -183 282 C-183.68707031 281.47664063 -184.37414063 280.95328125 -185.08203125 280.4140625 C-195.51859462 271.91315238 -202.68033877 259.25645049 -205 246 C-205.290288 242.57813067 -205.33246779 239.1828995 -205.3125 235.75 C-205.31056641 234.37098511 -205.31056641 234.37098511 -205.30859375 232.96411133 C-205.2094869 225.92938355 -204.32299268 219.67860396 -202 213 C-202.84304688 212.74476563 -203.68609375 212.48953125 -204.5546875 212.2265625 C-208.26254527 210.9065315 -211.65054602 209.19777976 -215.125 207.375 C-228.93899942 200.35469174 -243.16302026 195.07212328 -258 190.625 C-259.66349487 190.12419922 -259.66349487 190.12419922 -261.3605957 189.61328125 C-276.02567742 184.96919674 -276.02567742 184.96919674 -290.44140625 187.96484375 C-299.54468055 191.64784786 -310.31514398 190.38149374 -319.1796875 186.66796875 C-330.83393292 181.04030745 -338.63567221 173.36559541 -343 161 C-345.80844258 149.48737724 -344.75376405 136.97317198 -338.64453125 126.7265625 C-337.19622085 124.69970451 -335.66415864 122.85262962 -334 121 C-333.47535156 120.38382813 -332.95070313 119.76765625 -332.41015625 119.1328125 C-324.96164391 110.9657378 -315.52324955 107.83153654 -304.7578125 106.78125 C-294.06675705 106.32469247 -283.79170977 110.20522388 -275.6171875 116.97265625 C-267.6258791 124.44967252 -262.36119576 133.73922808 -261.80859375 144.84765625 C-261.23066915 149.52037503 -258.83194637 151.89250859 -255.3125 154.8125 C-254.73161621 155.31966553 -254.15073242 155.82683105 -253.55224609 156.34936523 C-251.72338482 157.92798966 -249.86872652 159.46885305 -248 161 C-247.13689209 161.7105957 -247.13689209 161.7105957 -246.25634766 162.43554688 C-242.81364765 165.24647743 -239.31291386 167.97167061 -235.76953125 170.65429688 C-234.04228391 171.9678437 -232.33346546 173.30278952 -230.625 174.640625 C-222.88055296 180.60772964 -214.71675955 185.75969679 -206.3125 190.75 C-205.2601416 191.38333252 -204.2077832 192.01666504 -203.12353516 192.66918945 C-202.13015137 193.24757568 -201.13676758 193.82596191 -200.11328125 194.421875 C-199.22423096 194.94362305 -198.33518066 195.46537109 -197.41918945 196.00292969 C-195.08998102 197.18873265 -195.08998102 197.18873265 -192.78344727 196.7590332 C-190.42502851 195.75529276 -189.29908077 194.37291917 -187.625 192.4375 C-176.92915394 181.34255521 -162.08106143 176.25772874 -146.9375 175.75 C-139.14055818 175.80407033 -131.38117212 177.53960929 -124 180 C-104.82213785 144.85147903 -85.85641637 109.64447905 -72 72 C-71.75834106 71.34515625 -71.51668213 70.6903125 -71.2677002 70.015625 C-70.5300104 67.9947816 -69.81273695 65.96780992 -69.1015625 63.9375 C-68.67439941 62.72964844 -68.24723633 61.52179688 -67.80712891 60.27734375 C-66.61057752 55.41875153 -67.9095211 52.17668102 -69.5625 47.625 C-72.93447059 36.49583597 -71.83335371 24.79806846 -66.74609375 14.44921875 C-60.35183461 2.96742917 -51.5313086 -3.87185351 -39.25 -8.375 C-24.83753656 -11.25156163 -11.79420301 -8.50729397 0 0 Z " fill="#0A71E1" transform="translate(1766,264)"/>
<path d="M0 0 C1.94307448 0.00056544 3.88614939 0.00024497 5.82922363 -0.00088501 C11.05754576 -0.00145435 16.28577446 0.01023147 21.51407504 0.02426291 C26.99530474 0.03684075 32.47653703 0.03794629 37.95777893 0.04031372 C48.31647028 0.04650789 58.67511896 0.06289055 69.0337916 0.0830127 C80.83560179 0.10543623 92.63741412 0.1163813 104.43924034 0.12640357 C128.69723418 0.14725878 152.95516961 0.18390899 177.21313477 0.22705078 C177.21313477 15.73705078 177.21313477 31.24705078 177.21313477 47.22705078 C168.79450928 47.24892456 168.79450928 47.24892456 160.20581055 47.27124023 C141.6657979 47.32156915 123.1258689 47.3880114 104.58593941 47.46276569 C93.34481876 47.50769706 82.10372961 47.54711791 70.86254883 47.57348633 C61.06270028 47.59648788 51.26295162 47.62991013 41.46318233 47.67575234 C36.27613087 47.69965535 31.08917816 47.71840331 25.90207291 47.72466469 C21.01502704 47.73072871 16.12823374 47.75077626 11.24128151 47.78132629 C9.45233606 47.7900854 7.66335757 47.79383353 5.87439156 47.79205894 C-10.98878858 47.47273539 -10.98878858 47.47273539 -25.31420898 55.34423828 C-32.46340768 64.48459312 -31.9274834 77.20267604 -30.78686523 88.22705078 C-29.68524839 93.31098305 -28.06355137 96.80445766 -24.59936523 100.66455078 C-16.95034415 104.91400694 -9.78900275 105.66534491 -1.14624023 105.62768555 C-0.01465485 105.63466461 1.11693054 105.64164368 2.2828064 105.64883423 C6.00965917 105.66875945 9.7362335 105.66831075 13.46313477 105.66845703 C16.08081799 105.68024684 18.69849454 105.69361494 21.31616211 105.70848083 C28.21120895 105.74556003 35.10621752 105.764907 42.00134277 105.7800293 C52.97758208 105.804104 63.95369229 105.84528363 74.92980957 105.90192986 C78.72513044 105.91797917 82.52032358 105.92201247 86.31567383 105.92494202 C97.88119782 105.95922888 109.37118604 106.22698984 120.90454102 107.13305664 C121.90977814 107.21191636 122.91501526 107.29077608 123.95071411 107.37202549 C144.38074561 109.15408362 162.78277866 114.79249151 176.42797852 130.85205078 C190.68567418 149.82071372 189.10739539 179.26148195 186.44384766 201.71289062 C184.12633991 217.6857203 178.58830306 231.45894168 165.90063477 242.03955078 C146.26340642 256.29075909 120.5283162 256.55160413 97.26928711 256.45410156 C95.3454743 256.45353572 93.42166107 256.45385736 91.49784851 256.45498657 C86.33581692 256.45555436 81.17388055 256.44389433 76.01187086 256.42983866 C70.59472114 256.41723431 65.17756862 256.41615322 59.76040649 256.41378784 C49.52931222 256.40760134 39.29826129 256.39122929 29.067186 256.37108886 C17.40798803 256.34864118 5.74878786 256.33771425 -5.91042638 256.32769799 C-29.86926881 256.30686018 -53.82805191 256.27021981 -77.78686523 256.22705078 C-77.78686523 240.71705078 -77.78686523 225.20705078 -77.78686523 209.22705078 C-72.12957275 209.21770508 -66.47228027 209.20835937 -60.64355469 209.19873047 C-41.93990481 209.16494473 -23.23636457 209.10958683 -4.53280354 209.04314804 C6.80577 209.00339662 18.14427452 208.97098432 29.48291016 208.95605469 C39.36960463 208.94301799 49.25614701 208.91600178 59.14275581 208.87243772 C64.37408684 208.84986837 69.60523058 208.83413739 74.83661461 208.83516693 C79.76887054 208.83591622 84.70071317 208.81785796 89.63286209 208.78588295 C91.4350591 208.77742177 93.23730268 208.77560807 95.03951073 208.78124809 C106.77302923 208.81305373 117.72636525 208.22803194 128.21313477 202.22705078 C129.42727496 200.37018944 129.42727496 200.37018944 130.21313477 198.22705078 C130.4897998 197.57679932 130.76646484 196.92654785 131.05151367 196.2565918 C133.28126943 190.15579173 133.66805249 184.62456695 133.58813477 178.16455078 C133.60553711 176.75206055 133.60553711 176.75206055 133.62329102 175.31103516 C133.59499266 168.53357862 132.7391585 162.99756714 128.88110352 157.23876953 C120.28912723 149.55359813 107.02289398 149.78256006 96.09936523 149.84228516 C94.87123611 149.83691238 93.64310699 149.83153961 92.37776184 149.82600403 C89.73626278 149.81629351 87.09539455 149.81174723 84.45394516 149.81636047 C80.25500947 149.82326967 76.05633878 149.80713228 71.85745239 149.78796387 C62.93436055 149.75035469 54.01129365 149.73736157 45.08813477 149.72705078 C35.46894326 149.71591682 25.84987804 149.70013394 16.23077118 149.65633821 C12.75048554 149.64118683 9.27041503 149.63198115 5.79009628 149.63774109 C-48.91658023 149.72316986 -48.91658023 149.72316986 -68.16577148 132.04345703 C-86.06507807 111.98760749 -84.97247335 83.78760084 -83.65063477 58.63476562 C-82.43115717 43.23065625 -77.75664122 26.81291794 -66.08764648 16.06689453 C-59.1858266 10.54778219 -51.88606788 6.96043772 -43.47436523 4.41455078 C-42.83635986 4.21966064 -42.19835449 4.02477051 -41.54101562 3.82397461 C-27.9114018 0.0345378 -14.02233873 -0.05780339 0 0 Z " fill="#FF7013" transform="translate(792.786865234375,526.77294921875)"/>
<path d="M0 0 C34.464375 -0.061875 68.92875 -0.12375 104.4375 -0.1875 C120.72887329 -0.22846802 120.72887329 -0.22846802 137.34936523 -0.27026367 C150.6661377 -0.28381348 150.6661377 -0.28381348 156.91078186 -0.28633118 C161.24924879 -0.28911322 165.58760431 -0.300304 169.92604065 -0.31672668 C175.4775965 -0.3374598 181.02899272 -0.34344488 186.58058369 -0.33921683 C188.60700093 -0.34009961 190.63342433 -0.34595557 192.65980804 -0.35764539 C213.73871176 -0.47349605 236.65929696 1.05911202 252.8125 16.375 C269.16495992 34.06782549 269.5316647 61.2378068 269.39111328 83.97290039 C269.37499342 87.06376112 269.39108766 90.1533184 269.41015625 93.24414062 C269.43235474 113.80710731 268.27908702 135.21946217 255 152 C254.52304688 152.61359375 254.04609375 153.2271875 253.5546875 153.859375 C243.00695328 165.83820884 224.190391 169.89745812 209 171 C203.82452177 171.13856778 198.65111842 171.12672619 193.47436523 171.11352539 C191.91640729 171.11324291 190.3584492 171.11340245 188.80049133 171.1139679 C184.59453504 171.11425348 180.38860758 171.10839539 176.18265796 171.10139394 C171.77843547 171.09512061 167.37421223 171.09455346 162.96998596 171.09336853 C154.64044384 171.09026692 146.31091493 171.08206935 137.98137861 171.07201904 C126.71826207 171.05872561 115.45514188 171.05334854 104.19201946 171.04751682 C86.46133643 171.03812863 68.73068125 171.01820191 51 171 C51 199.05 51 227.1 51 256 C34.17 256 17.34 256 0 256 C0 171.52 0 87.04 0 0 Z M51 47 C51 74.06 51 101.12 51 129 C76.75390013 129.05827697 76.75390013 129.05827697 102.5078125 129.09765625 C113.01141311 129.10951964 123.51498162 129.12345998 134.01855469 129.15087891 C141.66853024 129.17083914 149.31847972 129.18372269 156.96848059 129.18817699 C161.01753817 129.19077991 165.06652117 129.19687995 169.11555481 129.21146011 C172.93057345 129.22508566 176.74548714 129.22921263 180.5605278 129.22621536 C181.95687303 129.22676331 183.35322195 129.23071107 184.74954605 129.23841095 C195.92296471 129.29697726 204.75635726 129.06525295 213.1875 120.875 C219.07343271 111.53869294 218.49615373 100.98702986 218.44604492 90.33276367 C218.43752929 87.57199612 218.46637269 84.81329883 218.49804688 82.05273438 C218.54020171 71.25165353 217.69562052 62.68054479 212.375 53.0625 C204.55996379 46.27575803 195.02280563 46.43907585 185.18701172 46.54589844 C183.71757539 46.54702887 182.24813681 46.54638924 180.77870178 46.54412842 C176.81847474 46.54298796 172.85873935 46.56638775 168.89862585 46.59442425 C164.74934778 46.61955036 160.60005653 46.62178869 156.45071411 46.62652588 C148.60630252 46.6389229 140.76211581 46.6716998 132.91780293 46.71192384 C122.30866185 46.76513618 111.69945861 46.7866135 101.09021759 46.80993271 C84.39331019 46.84746389 67.69687717 46.92717621 51 47 Z " fill="#FF7012" transform="translate(1253,527)"/>
<path d="M0 0 C16.5 0 33 0 50 0 C50 33.99 50 67.98 50 103 C99.83 103 149.66 103 201 103 C201 69.01 201 35.02 201 0 C217.83 0 234.66 0 252 0 C252 84.48 252 168.96 252 256 C235.17 256 218.34 256 201 256 C201 219.7 201 183.4 201 146 C151.17 146 101.34 146 50 146 C50 182.3 50 218.6 50 256 C33.5 256 17 256 0 256 C0 171.52 0 87.04 0 0 Z " fill="#0970E1" transform="translate(253,527)"/>
<path d="M0 0 C78.21 0 156.42 0 237 0 C237 15.51 237 31.02 237 47 C206.31 47 175.62 47 144 47 C144 115.97 144 184.94 144 256 C127.17 256 110.34 256 93 256 C93 187.03 93 118.06 93 47 C62.31 47 31.62 47 0 47 C0 31.49 0 15.98 0 0 Z " fill="#FF7012" transform="translate(993,527)"/>
<path d="M0 0 C0.69323364 -0.00087616 1.38646729 -0.00175232 2.10070801 -0.00265503 C4.37974911 0.00150734 6.65580306 0.04808439 8.93432617 0.09521484 C10.51900118 0.10641206 12.10369703 0.11494977 13.68840027 0.12094116 C17.84986187 0.14379889 22.01005751 0.20269343 26.17102051 0.26916504 C30.42072423 0.33065495 34.67063349 0.35797035 38.9206543 0.38818359 C47.25261407 0.45244172 55.58354681 0.55478165 63.91479492 0.68115234 C62.38773413 3.89149644 60.80302319 6.01857563 58.24682617 8.50927734 C57.51786133 9.22728516 56.78889648 9.94529297 56.0378418 10.68505859 C55.27536133 11.42626953 54.51288086 12.16748047 53.72729492 12.93115234 C48.81520446 17.72821554 44.07567444 22.56110946 39.60107422 27.77001953 C36.85075551 30.88707395 33.88393951 33.77448145 30.91479492 36.68115234 C25.49880191 42.02484103 25.49880191 42.02484103 20.41479492 47.68115234 C16.56290716 52.2405297 12.26667284 56.35362098 8.02807617 60.54833984 C5.04678515 63.51056078 2.12916176 66.46822833 -0.58520508 69.68115234 C-4.43709284 74.2405297 -8.73332716 78.35362098 -12.97192383 82.54833984 C-15.95321485 85.51056078 -18.87083824 88.46822833 -21.58520508 91.68115234 C-25.4330991 96.23580241 -29.72438188 100.34494028 -33.95874023 104.53515625 C-37.63308431 108.18586477 -41.13996927 111.90538778 -44.48754883 115.86083984 C-47.5095522 119.30400261 -50.80916179 122.48169189 -54.08520508 125.68115234 C-49.90907815 130.60684052 -45.62991195 135.42536187 -41.30004883 140.21630859 C-39.41604758 142.31296607 -37.55655546 144.42642925 -35.71020508 146.55615234 C-32.72603822 149.98447427 -29.66332024 153.33736035 -26.58520508 156.68115234 C-22.94108792 160.63979883 -19.34606853 164.63291923 -15.81958008 168.69677734 C-12.29021043 172.73488496 -8.67949877 176.70089423 -5.08520508 180.68115234 C3.48339699 190.16987276 3.48339699 190.16987276 7.35229492 194.61865234 C11.00537449 198.81418456 14.75985041 202.91488788 18.50854492 207.02490234 C21.06628263 209.84837903 23.57249461 212.71171237 26.07104492 215.58740234 C28.32355949 218.14534261 30.61796584 220.66294215 32.91479492 223.18115234 C36.34620675 226.94330266 39.7282273 230.73940664 43.06713867 234.58349609 C45.34064971 237.16462808 47.65822743 239.70339212 49.97729492 242.24365234 C60.91479492 254.26655311 60.91479492 254.26655311 60.91479492 256.68115234 C51.81350375 256.93683117 42.71346093 257.13186646 33.60935307 257.25108624 C29.38101308 257.3083297 25.15514166 257.38585739 20.92822266 257.51098633 C16.84310924 257.6311506 12.76035769 257.69640355 8.67361259 257.72480202 C7.12045545 257.74501718 5.56741761 257.78449985 4.01527596 257.84418297 C-8.13331318 258.29243465 -8.13331318 258.29243465 -12.99002075 254.28323364 C-15.26328435 251.51533016 -17.18324995 248.71127879 -19.08520508 245.68115234 C-20.11684769 244.47693271 -21.17190524 243.29124854 -22.27270508 242.14990234 C-22.73870117 241.65554688 -23.20469727 241.16119141 -23.68481445 240.65185547 C-24.14694336 240.16652344 -24.60907227 239.68119141 -25.08520508 239.18115234 C-29.52735891 234.44623299 -33.67690709 229.55961071 -37.74145508 224.49365234 C-40.41728679 221.28265429 -43.22878784 218.23086097 -46.08520508 215.18115234 C-50.52353182 210.4424877 -54.67662758 205.55995909 -58.74145508 200.49365234 C-61.41728679 197.28265429 -64.22878784 194.23086097 -67.08520508 191.18115234 C-71.52353182 186.4424877 -75.67662758 181.55995909 -79.74145508 176.49365234 C-82.41728679 173.28265429 -85.22878784 170.23086097 -88.08520508 167.18115234 C-92.52228568 162.44381816 -96.67472816 157.56318073 -100.73754883 152.49755859 C-103.91320321 148.68783012 -107.29728432 145.09315807 -110.68774414 141.4753418 C-115.08770912 136.75042788 -119.15380766 131.80353192 -123.08520508 126.68115234 C-121.49581082 122.74900933 -118.92178006 120.35094888 -115.89770508 117.43115234 C-111.9750795 113.6005232 -108.254329 109.67926894 -104.69458008 105.50927734 C-102.52148723 103.04081265 -100.18048138 100.76579872 -97.83520508 98.46240234 C-96.00278021 96.5972556 -94.29167373 94.66187489 -92.58520508 92.68115234 C-89.80281176 89.45158867 -86.87501079 86.44792581 -83.83520508 83.46240234 C-82.00278021 81.5972556 -80.29167373 79.66187489 -78.58520508 77.68115234 C-75.80281176 74.45158867 -72.87501079 71.44792581 -69.83520508 68.46240234 C-68.00278021 66.5972556 -66.29167373 64.66187489 -64.58520508 62.68115234 C-61.80281176 59.45158867 -58.87501079 56.44792581 -55.83520508 53.46240234 C-54.00278021 51.5972556 -52.29167373 49.66187489 -50.58520508 47.68115234 C-47.80281176 44.45158867 -44.87501079 41.44792581 -41.83520508 38.46240234 C-40.00278021 36.5972556 -38.29167373 34.66187489 -36.58520508 32.68115234 C-33.80281176 29.45158867 -30.87501079 26.44792581 -27.83520508 23.46240234 C-25.38140564 20.96478506 -23.12673739 18.31010692 -20.84301758 15.65771484 C-18.62266775 13.16105481 -16.26694959 10.83141414 -13.85864258 8.51708984 C-11.89510486 6.57800729 -11.89510486 6.57800729 -9.91719055 3.60897827 C-6.96215706 0.07108848 -4.61886693 -0.04922416 0 0 Z " fill="#0A71E1" transform="translate(631.085205078125,526.31884765625)"/>
<path d="M0 0 C0.69323364 -0.00087616 1.38646729 -0.00175232 2.10070801 -0.00265503 C4.37974911 0.00150734 6.65580306 0.04808439 8.93432617 0.09521484 C10.51900118 0.10641206 12.10369703 0.11494977 13.68840027 0.12094116 C17.84986187 0.14379889 22.01005751 0.20269343 26.17102051 0.26916504 C30.42072423 0.33065495 34.67063349 0.35797035 38.9206543 0.38818359 C47.25261407 0.45244172 55.58354681 0.55478165 63.91479492 0.68115234 C63.58479492 1.67115234 63.25479492 2.66115234 62.91479492 3.68115234 C62.41979492 2.69115234 62.41979492 2.69115234 61.91479492 1.68115234 C53.42029163 1.48609659 44.92956173 1.36897618 36.43301964 1.34693336 C32.4858311 1.33433735 28.54248267 1.29653126 24.59643555 1.19775391 C4.76128834 -0.10107749 4.76128834 -0.10107749 -12.43783569 7.78598022 C-14.99312759 10.60494333 -17.09067198 13.43852585 -19.08520508 16.68115234 C-19.74520508 16.35115234 -20.40520508 16.02115234 -21.08520508 15.68115234 C-20.49352539 15.10107422 -19.9018457 14.52099609 -19.29223633 13.92333984 C-18.50204102 13.14216797 -17.7118457 12.36099609 -16.89770508 11.55615234 C-15.73174805 10.40759766 -15.73174805 10.40759766 -14.54223633 9.23583984 C-11.98545046 6.70396051 -11.98545046 6.70396051 -9.87446594 3.5640564 C-6.94463732 0.0503242 -4.57883915 -0.04879758 0 0 Z " fill="#4A96E9" transform="translate(631.085205078125,526.31884765625)"/>
<path d="M0 0 C0.99 0.33 1.98 0.66 3 1 C-1.62 5.62 -6.24 10.24 -11 15 C-11.66 14.67 -12.32 14.34 -13 14 C-12.39671875 13.40832031 -11.7934375 12.81664062 -11.171875 12.20703125 C-5.26989543 6.38766162 -5.26989543 6.38766162 0 0 Z " fill="#559CEA" transform="translate(623,528)"/>
<path d="M0 0 C0.99 0.33 1.98 0.66 3 1 C0.03 3.97 -2.94 6.94 -6 10 C-6.33 9.01 -6.66 8.02 -7 7 C-4.69 4.69 -2.38 2.38 0 0 Z " fill="#539BEA" transform="translate(1602,684)"/>
</svg>
