<?xml version="1.0" encoding="UTF-8"?>
<svg version="1.1" xmlns="http://www.w3.org/2000/svg" width="233" height="56">
<path d="M0 0 C3.33219018 2.13601934 3.89315459 3.6327189 5 7.4375 C5 11 5 11 3.0625 13.9375 C2.0415625 14.9584375 2.0415625 14.9584375 1 16 C2.15628906 16.03867187 2.15628906 16.03867187 3.3359375 16.078125 C4.33882812 16.13484375 5.34171875 16.1915625 6.375 16.25 C7.87160156 16.31960937 7.87160156 16.31960937 9.3984375 16.390625 C12 17 12 17 13.3515625 19.046875 C13.56554688 19.69140625 13.77953125 20.3359375 14 21 C13.22914062 21.06058594 12.45828125 21.12117188 11.6640625 21.18359375 C10.15972656 21.30927734 10.15972656 21.30927734 8.625 21.4375 C7.12839844 21.55931641 7.12839844 21.55931641 5.6015625 21.68359375 C3.02072387 21.84965626 3.02072387 21.84965626 1 23 C0.67 30.26 0.34 37.52 0 45 C3.24849977 43.27773504 3.24849977 43.27773504 4 40 C4.14492123 38.59335074 4.24628931 37.1818867 4.31640625 35.76953125 C4.35830078 34.96708984 4.40019531 34.16464844 4.44335938 33.33789062 C4.48267578 32.50451172 4.52199219 31.67113281 4.5625 30.8125 C4.60568359 29.96751953 4.64886719 29.12253906 4.69335938 28.25195312 C4.79931518 26.16815567 4.9001502 24.08409897 5 22 C7.64 22 10.28 22 13 22 C13.11709643 25.52054914 13.1875469 29.04059112 13.25 32.5625 C13.30027344 34.0484668 13.30027344 34.0484668 13.3515625 35.56445312 C13.45043883 43.00489673 12.33053057 47.31262687 7.25 52.9375 C6.8375 53.288125 6.425 53.63875 6 54 C6.33 54.66 6.66 55.32 7 56 C-0.26 56 -7.52 56 -15 56 C-14.67 55.01 -14.34 54.02 -14 53 C-14.78375 52.4225 -15.5675 51.845 -16.375 51.25 C-19.70350509 48.39699564 -20.81512914 46.55151285 -21.3347168 42.19091797 C-21.37250244 41.13533691 -21.41028809 40.07975586 -21.44921875 38.9921875 C-21.51399414 37.26548828 -21.51399414 37.26548828 -21.58007812 35.50390625 C-21.61552734 34.30636719 -21.65097656 33.10882813 -21.6875 31.875 C-21.73455078 30.66972656 -21.78160156 29.46445312 -21.83007812 28.22265625 C-22.13643973 19.27287946 -22.13643973 19.27287946 -21 17 C-18.27734375 16.5859375 -18.27734375 16.5859375 -14.9375 16.375 C-13.83277344 16.30023437 -12.72804688 16.22546875 -11.58984375 16.1484375 C-10.73519531 16.09945313 -9.88054688 16.05046875 -9 16 C-9.680625 15.34 -10.36125 14.68 -11.0625 14 C-13.36033095 10.44206821 -13.38233569 8.84235843 -12.59765625 4.8046875 C-12 3 -12 3 -10.4375 1 C-6.89838657 -0.45194397 -3.76547653 -0.68041465 0 0 Z M-13 22 C-13.08733513 25.08315385 -13.14050127 28.16598827 -13.1875 31.25 C-13.21263672 32.12269531 -13.23777344 32.99539062 -13.26367188 33.89453125 C-13.35397132 38.95051625 -13.35397132 38.95051625 -11.61328125 43.609375 C-10.1025045 45.21763445 -10.1025045 45.21763445 -8 45 C-8 37.74 -8 30.48 -8 23 C-9.65 22.67 -11.3 22.34 -13 22 Z M8 41 C9 43 9 43 9 43 Z M-5 46 C-5.99 47.98 -6.98 49.96 -8 52 C-5.36 52 -2.72 52 0 52 C-1.485 49.03 -1.485 49.03 -3 46 C-3.66 46 -4.32 46 -5 46 Z " fill="#003477" transform="translate(22,0)"/>
<path d="M0 0 C1.32 0 2.64 0 4 0 C4 2.64 4 5.28 4 8 C6.97 8 9.94 8 13 8 C13 5.36 13 2.72 13 0 C14.32 0 15.64 0 17 0 C17 6.93 17 13.86 17 21 C15.68 21 14.36 21 13 21 C13 17.7 13 14.4 13 11 C10.03 11 7.06 11 4 11 C4 14.3 4 17.6 4 21 C2.68 21 1.36 21 0 21 C0 14.07 0 7.14 0 0 Z " fill="#003477" transform="translate(45,4)"/>
<path d="M0 0 C1.32 0 2.64 0 4 0 C4.33 1.98 4.66 3.96 5 6 C5.37511719 5.566875 5.75023438 5.13375 6.13671875 4.6875 C10.36878216 0.08233276 10.36878216 0.08233276 13.875 -0.375 C14.57625 -0.25125 15.2775 -0.1275 16 0 C14.4169423 4.2742558 11.49431596 6.26531794 8 9 C8.39832031 9.53109375 8.79664062 10.0621875 9.20703125 10.609375 C11.8046875 14.07291667 14.40234375 17.53645833 17 21 C14.375 21.4375 14.375 21.4375 11 21 C8.66877878 18.9050512 6.82671379 16.53926173 5 14 C4.67 16.31 4.34 18.62 4 21 C2.68 21 1.36 21 0 21 C0 14.07 0 7.14 0 0 Z " fill="#003477" transform="translate(71,4)"/>
<path d="M0 0 C1.32 0 2.64 0 4 0 C4.33 0.66 4.66 1.32 5 2 C5.33 1.34 5.66 0.68 6 0 C12.27 0 18.54 0 25 0 C25.89694794 3.58779175 26.08304117 6.34618837 26 10 C25.01 10 24.02 10 23 10 C22.67 9.34 22.34 8.68 22 8 C20.68 8.33 19.36 8.66 18 9 C18 6.69 18 4.38 18 2 C17.01 2 16.02 2 15 2 C15 4.31 15 6.62 15 9 C14.01 9 13.02 9 12 9 C12 6.69 12 4.38 12 2 C11.01 2 10.02 2 9 2 C9 4.31 9 6.62 9 9 C7.68 9 6.36 9 5 9 C4.67 8.34 4.34 7.68 4 7 C3.67 7.66 3.34 8.32 3 9 C2.01 9 1.02 9 0 9 C0 6.03 0 3.06 0 0 Z M21 2 C22 4 22 4 22 4 Z " fill="#003477" transform="translate(52,30)"/>
<path d="M0 0 C0.99 0 1.98 0 3 0 C3.04898438 0.89203125 3.09796875 1.7840625 3.1484375 2.703125 C3.22320312 3.87359375 3.29796875 5.0440625 3.375 6.25 C3.44460937 7.41015625 3.51421875 8.5703125 3.5859375 9.765625 C3.96248308 12.70694334 4.4774123 14.49949011 6 17 C7.98 17 9.96 17 12 17 C12.33 11.39 12.66 5.78 13 0 C14.32 0 15.64 0 17 0 C17.08139142 2.39652528 17.14067009 4.79025436 17.1875 7.1875 C17.21263672 7.86103516 17.23777344 8.53457031 17.26367188 9.22851562 C17.32896759 13.69038968 16.82596682 16.50489621 14 20 C10.32982769 21.56322154 8.09309092 22.2672 4.1875 21.3125 C2 20 2 20 0 17 C-0.22705078 15.09887695 -0.22705078 15.09887695 -0.1953125 12.98828125 C-0.18886719 12.23095703 -0.18242188 11.47363281 -0.17578125 10.69335938 C-0.15902344 9.90767578 -0.14226562 9.12199219 -0.125 8.3125 C-0.11597656 7.51521484 -0.10695313 6.71792969 -0.09765625 5.89648438 C-0.07411585 3.930861 -0.03824547 1.96539225 0 0 Z " fill="#003477" transform="translate(94,4)"/>
<path d="M0 0 C1.375 2.0625 1.375 2.0625 2 4 C-1.28976808 5.09658936 -2.71303767 4.79953138 -6 4 C-6 4.66 -6 5.32 -6 6 C-4.24325879 7.3280064 -4.24325879 7.3280064 -2.0625 8.5625 C1.94347826 10.94347826 1.94347826 10.94347826 3 12 C2.4 18.6 2.4 18.6 0 21 C-3.03647514 21.49551587 -5.96056544 21.46760532 -9 21 C-11.0625 19.125 -11.0625 19.125 -12 17 C-12 16.34 -12 15.68 -12 15 C-10.68 14.67 -9.36 14.34 -8 14 C-7.01 15.485 -7.01 15.485 -6 17 C-4.68 16.67 -3.36 16.34 -2 16 C-2 15.01 -2 14.02 -2 13 C-2.56589844 12.78085937 -3.13179687 12.56171875 -3.71484375 12.3359375 C-5.96542719 11.36292603 -7.97744357 10.38944528 -10 9 C-11.1875 5.9375 -11.1875 5.9375 -11 3 C-7.90997644 -1.26717539 -4.89207344 -1.32493656 0 0 Z " fill="#003477" transform="translate(130,4)"/>
<path d="M0 0 C1.32 -0.33 2.64 -0.66 4 -1 C4 3.29 4 7.58 4 12 C-0.29 12 -4.58 12 -9 12 C-9 8.37 -9 4.74 -9 1 C-4.6363283 -1.18183585 -4.35520128 -0.97992029 0 0 Z " fill="#003477" transform="translate(164,44)"/>
<path d="M0 0 C2.97 0 5.94 0 9 0 C9 0.66 9 1.32 9 2 C9.66 2 10.32 2 11 2 C11 5.3 11 8.6 11 12 C7.40527739 13.79736131 2.97839649 13 -1 13 C-1.87867729 9.26562152 -2.08912219 5.83225427 -2 2 C-1.34 2 -0.68 2 0 2 C0 1.34 0 0.68 0 0 Z " fill="#003477" transform="translate(176,43)"/>
<path d="M0 0 C1.28571429 8.42857143 1.28571429 8.42857143 0 13 C-3.3 13 -6.6 13 -10 13 C-12.27678571 4.96428571 -12.27678571 4.96428571 -11 1 C-3.375 0 -3.375 0 0 0 Z " fill="#003477" transform="translate(56,43)"/>
<path d="M0 0 C1.65 0 3.3 0 5 0 C5 0.66 5 1.32 5 2 C5.66 2 6.32 2 7 2 C8.12733524 5.94567332 8.32234763 9.03295711 7 13 C3.625 13.125 3.625 13.125 0 13 C-0.66 12.34 -1.32 11.68 -2 11 C-2.33 11.66 -2.66 12.32 -3 13 C-3.66 13 -4.32 13 -5 13 C-5 9.04 -5 5.08 -5 1 C-2.525 1.495 -2.525 1.495 0 2 C0 1.34 0 0.68 0 0 Z " fill="#003477" transform="translate(68,43)"/>
<path d="M0 0 C3.63 0 7.26 0 11 0 C12.125 7.625 12.125 7.625 11 11 C9.68 11 8.36 11 7 11 C7 11.66 7 12.32 7 13 C5.68 13 4.36 13 3 13 C3 12.34 3 11.68 3 11 C2.01 11 1.02 11 0 11 C0 9 0 9 1 8 C0.34 8 -0.32 8 -1 8 C-0.67 5.36 -0.34 2.72 0 0 Z " fill="#003477" transform="translate(138,43)"/>
<path d="M0 0 C6.625 -0.125 6.625 -0.125 10 1 C10.07427838 4.34252724 10.06546953 6.8035914 9 10 C9.66 10.33 10.32 10.66 11 11 C11 11.66 11 12.32 11 13 C6.71 13 2.42 13 -2 13 C-2 12.34 -2 11.68 -2 11 C-1.34 11 -0.68 11 0 11 C0 10.34 0 9.68 0 9 C-0.66 9 -1.32 9 -2 9 C-2 8.34 -2 7.68 -2 7 C-1.34 7 -0.68 7 0 7 C0 6.34 0 5.68 0 5 C-0.66 5 -1.32 5 -2 5 C-2 4.34 -2 3.68 -2 3 C-1.34 3 -0.68 3 0 3 C0 2.01 0 1.02 0 0 Z M5 6 C5.66 6.66 6.32 7.32 7 8 C7 7.34 7 6.68 7 6 C6.34 6 5.68 6 5 6 Z M2 8 C2.33 8.99 2.66 9.98 3 11 C3 10.01 3 9.02 3 8 C2.67 8 2.34 8 2 8 Z " fill="#003477" transform="translate(102,43)"/>
<path d="M0 0 C0.99 -0.33 1.98 -0.66 3 -1 C3.19551338 0.60320974 3.38111983 2.20762986 3.5625 3.8125 C3.66691406 4.70582031 3.77132812 5.59914063 3.87890625 6.51953125 C4 9 4 9 3 12 C2.34 12 1.68 12 1 12 C1 11.01 1 10.02 1 9 C-0.65 9.33 -2.3 9.66 -4 10 C-4 10.66 -4 11.32 -4 12 C-4.66 12 -5.32 12 -6 12 C-6 11.01 -6 10.02 -6 9 C-6.99 9 -7.98 9 -9 9 C-9 5.72724974 -8.70074844 3.153368 -8 0 C-4.65367153 -1.11544282 -3.36086161 -0.67217232 0 0 Z " fill="#003477" transform="translate(90,44)"/>
<path d="M0 0 C4.62 0 9.24 0 14 0 C14 0.99 14 1.98 14 3 C12.35 3 10.7 3 9 3 C9 8.94 9 14.88 9 21 C7.68 21 6.36 21 5 21 C5 15.06 5 9.12 5 3 C3.35 3 1.7 3 0 3 C0 2.01 0 1.02 0 0 Z " fill="#003477" transform="translate(139,4)"/>
<path d="M0 0 C0.33 1.32 0.66 2.64 1 4 C1 3.34 1 2.68 1 2 C1.99 2 2.98 2 4 2 C4.33 4.97 4.66 7.94 5 11 C4.34 11 3.68 11 3 11 C3 11.66 3 12.32 3 13 C1.741875 13.020625 0.48375 13.04125 -0.8125 13.0625 C-1.52019531 13.07410156 -2.22789062 13.08570313 -2.95703125 13.09765625 C-5 13 -5 13 -8 12 C-7.67 8.7 -7.34 5.4 -7 2 C-2.25 0 -2.25 0 0 0 Z M-3 2 C-3 4.97 -3 7.94 -3 11 C-1.68 11 -0.36 11 1 11 C1 10.34 1 9.68 1 9 C0.34 9 -0.32 9 -1 9 C-1.33 6.69 -1.66 4.38 -2 2 C-2.33 2 -2.66 2 -3 2 Z " fill="#003477" transform="translate(219,43)"/>
<path d="M0 0 C0.66 0 1.32 0 2 0 C2 0.66 2 1.32 2 2 C3.65 2 5.3 2 7 2 C7 4.64 7 7.28 7 10 C5.35 10 3.7 10 2 10 C2 10.99 2 11.98 2 13 C1.34 13 0.68 13 0 13 C0 12.01 0 11.02 0 10 C-1.65 10 -3.3 10 -5 10 C-5 7.36 -5 4.72 -5 2 C-3.35 2 -1.7 2 0 2 C0 1.34 0 0.68 0 0 Z M-3 5 C-3 5.66 -3 6.32 -3 7 C-2.01 7 -1.02 7 0 7 C0 6.34 0 5.68 0 5 C-0.99 5 -1.98 5 -3 5 Z M2 5 C2 5.66 2 6.32 2 7 C2.99 7 3.98 7 5 7 C5 6.34 5 5.68 5 5 C4.01 5 3.02 5 2 5 Z " fill="#003477" transform="translate(198,43)"/>
<path d="M0 0 C0.66 0 1.32 0 2 0 C2 0.99 2 1.98 2 3 C3.65 3 5.3 3 7 3 C7 3.66 7 4.32 7 5 C5.68 5.33 4.36 5.66 3 6 C3.66 6.78375 4.32 7.5675 5 8.375 C7 11 7 11 7 13 C4.525 12.01 4.525 12.01 2 11 C2 10.34 2 9.68 2 9 C1.236875 9.680625 0.47375 10.36125 -0.3125 11.0625 C-1.199375 11.701875 -2.08625 12.34125 -3 13 C-3.99 12.67 -4.98 12.34 -6 12 C-5.360625 11.21625 -4.72125 10.4325 -4.0625 9.625 C-2.01857687 7.20460719 -2.01857687 7.20460719 -1 5 C-2.32 5 -3.64 5 -5 5 C-5 4.34 -5 3.68 -5 3 C-3.35 3 -1.7 3 0 3 C0 2.01 0 1.02 0 0 Z " fill="#003477" transform="translate(124,43)"/>
<path d="M0 0 C1.32 0.33 2.64 0.66 4 1 C5.32 0.67 6.64 0.34 8 0 C8 2.97 8 5.94 8 9 C6.68 8.67 5.36 8.34 4 8 C2.68 8.33 1.36 8.66 0 9 C0 6.03 0 3.06 0 0 Z " fill="#003477" transform="translate(200,30)"/>
<path d="M0 0 C2.31 0 4.62 0 7 0 C8.04005702 3.38018531 8.08004482 6.4780279 8 10 C7.01 10 6.02 10 5 10 C4.67 9.01 4.34 8.02 4 7 C3.67 7.66 3.34 8.32 3 9 C2.01 9 1.02 9 0 9 C0 6.03 0 3.06 0 0 Z M3 2 C4 4 4 4 4 4 Z " fill="#003477" transform="translate(139,30)"/>
<path d="M0 0 C1.32 0.33 2.64 0.66 4 1 C5.32 0.67 6.64 0.34 8 0 C8 2.97 8 5.94 8 9 C6.68 8.67 5.36 8.34 4 8 C2.68 8.33 1.36 8.66 0 9 C0 6.03 0 3.06 0 0 Z " fill="#003477" transform="translate(112,30)"/>
<path d="M0 0 C1.98 0 3.96 0 6 0 C6.77842938 3.40562852 7.09978121 6.50765756 7 10 C4.69 9.67 2.38 9.34 0 9 C0 6.03 0 3.06 0 0 Z " fill="#003477" transform="translate(226,30)"/>
<path d="M0 0 C2.31 0 4.62 0 7 0 C7.91058531 3.07322544 8.08886184 5.80097361 8 9 C7.4225 8.814375 6.845 8.62875 6.25 8.4375 C3.69606643 7.7761831 3.69606643 7.7761831 0 9 C0 6.03 0 3.06 0 0 Z M3 2 C4 4 4 4 4 4 Z " fill="#003477" transform="translate(95,30)"/>
<path d="M0 0 C0.99 0 1.98 0 3 0 C3.33 1.98 3.66 3.96 4 6 C4.33 4.02 4.66 2.04 5 0 C5.99 0 6.98 0 8 0 C8.29296875 6.0546875 8.29296875 6.0546875 8 8 C5 10 5 10 2.3125 9.625 C1.549375 9.41875 0.78625 9.2125 0 9 C0 6.03 0 3.06 0 0 Z " fill="#003477" transform="translate(130,30)"/>
<path d="M0 0 C0.99 0 1.98 0 3 0 C3 0.99 3 1.98 3 3 C3.66 3 4.32 3 5 3 C5 2.01 5 1.02 5 0 C5.99 0 6.98 0 8 0 C8 2.97 8 5.94 8 9 C7.01 9 6.02 9 5 9 C5 8.01 5 7.02 5 6 C4.34 6 3.68 6 3 6 C3 6.99 3 7.98 3 9 C2.01 9 1.02 9 0 9 C0 6.03 0 3.06 0 0 Z " fill="#003477" transform="translate(156,30)"/>
<path d="M0 0 C1.65 0 3.3 0 5 0 C5.33 2.64 5.66 5.28 6 8 C3 10 3 10 0.8125 9.625 C0.214375 9.41875 -0.38375 9.2125 -1 9 C-0.67 8.01 -0.34 7.02 0 6 C-0.33 5.67 -0.66 5.34 -1 5 C-0.71395102 3.32457024 -0.38218767 1.65614657 0 0 Z " fill="#003477" transform="translate(149,30)"/>
<path d="M0 0 C1.98 0 3.96 0 6 0 C6.33 1.65 6.66 3.3 7 5 C5.68 5.33 4.36 5.66 3 6 C3 7.32 3 8.64 3 10 C2.01 10 1.02 10 0 10 C0 6.7 0 3.4 0 0 Z " fill="#003477" transform="translate(171,30)"/>
<path d="M0 0 C2.31 0 4.62 0 7 0 C6.814375 0.928125 6.62875 1.85625 6.4375 2.8125 C5.75876119 6.01343771 5.75876119 6.01343771 7 9 C4.69 9 2.38 9 0 9 C0 6.03 0 3.06 0 0 Z " fill="#003477" transform="translate(79,30)"/>
<path d="M0 0 C-0.33 0.99 -0.66 1.98 -1 3 C-1.99 3 -2.98 3 -4 3 C-4 3.99 -4 4.98 -4 6 C-2.68 6.33 -1.36 6.66 0 7 C-0.33 7.99 -0.66 8.98 -1 10 C-6.875 9.125 -6.875 9.125 -8 8 C-8.04092937 5.66702567 -8.04241723 3.33294775 -8 1 C-5.29120665 -0.35439668 -2.99066732 -0.06501451 0 0 Z " fill="#003477" transform="translate(191,30)"/>
<path d="M0 0 C1.98 0 3.96 0 6 0 C6.33 1.65 6.66 3.3 7 5 C5.68 5.33 4.36 5.66 3 6 C3 7.32 3 8.64 3 10 C2.01 10 1.02 10 0 10 C0 6.7 0 3.4 0 0 Z " fill="#003477" transform="translate(87,30)"/>
<path d="M0 0 C1.98 0 3.96 0 6 0 C5.979375 0.928125 5.95875 1.85625 5.9375 2.8125 C5.84230396 6.02286011 5.84230396 6.02286011 7 9 C4.69 9 2.38 9 0 9 C0 6.03 0 3.06 0 0 Z " fill="#003477" transform="translate(192,30)"/>
<path d="M0 0 C1.98 0 3.96 0 6 0 C5.979375 0.928125 5.95875 1.85625 5.9375 2.8125 C5.84230396 6.02286011 5.84230396 6.02286011 7 9 C4.69 9 2.38 9 0 9 C0 6.03 0 3.06 0 0 Z " fill="#003477" transform="translate(122,30)"/>
<path d="M0 0 C1.98 0 3.96 0 6 0 C5.979375 0.928125 5.95875 1.85625 5.9375 2.8125 C5.84230396 6.02286011 5.84230396 6.02286011 7 9 C4.69 9 2.38 9 0 9 C0 6.03 0 3.06 0 0 Z " fill="#003477" transform="translate(104,30)"/>
<path d="M0 0 C1.98 0 3.96 0 6 0 C6 2.97 6 5.94 6 9 C4.02 9 2.04 9 0 9 C0 6.03 0 3.06 0 0 Z " fill="#003477" transform="translate(218,30)"/>
<path d="M0 0 C1.98 0 3.96 0 6 0 C6 2.97 6 5.94 6 9 C4.02 9 2.04 9 0 9 C0 6.03 0 3.06 0 0 Z " fill="#003477" transform="translate(45,30)"/>
<path d="M0 0 C2.64 0 5.28 0 8 0 C8 0.66 8 1.32 8 2 C7.01 2 6.02 2 5 2 C5 4.31 5 6.62 5 9 C4.01 9 3.02 9 2 9 C2 6.69 2 4.38 2 2 C1.34 2 0.68 2 0 2 C0 1.34 0 0.68 0 0 Z " fill="#003477" transform="translate(209,30)"/>
<path d="M0 0 C0.99 0 1.98 0 3 0 C3 3.3 3 6.6 3 10 C2.01 10 1.02 10 0 10 C0 6.7 0 3.4 0 0 Z " fill="#003477" transform="translate(166,30)"/>
</svg>
