<?xml version="1.0" encoding="UTF-8"?>
<svg version="1.1" xmlns="http://www.w3.org/2000/svg" width="1085" height="230">
<path d="M0 0 C4.72758004 3.99745185 8.80076019 8.35583923 12.7109375 13.1484375 C13.42636719 14.0146875 14.14179688 14.8809375 14.87890625 15.7734375 C21.60560087 24.20100923 27.31675117 33.18837262 33.0234375 42.328125 C38.71533178 51.39408033 44.75066756 60.23649277 50.72540283 69.1171875 C52.48883019 71.73942741 54.24982426 74.36329569 56.01025391 76.98754883 C56.91038439 78.32746681 57.81213397 79.66629825 58.71533203 81.00415039 C60.04366688 82.97258692 61.36614844 84.94484015 62.6875 86.91796875 C63.09360504 87.51680374 63.49971008 88.11563873 63.91812134 88.73262024 C66.7109375 92.92069848 66.7109375 92.92069848 66.7109375 95.1484375 C49.71965162 99.92487675 49.71965162 99.92487675 41.8984375 101.9609375 C41.00511719 102.19425781 40.11179688 102.42757812 39.19140625 102.66796875 C36.63712791 103.16273448 34.30602363 103.23695929 31.7109375 103.1484375 C31.86691406 103.91285156 32.02289063 104.67726562 32.18359375 105.46484375 C35.85881283 125.6907183 31.32433579 143.92894271 20.7109375 161.1484375 C18.51762949 164.28553259 16.18873629 167.23407416 13.7109375 170.1484375 C13.08445313 170.96570313 12.45796875 171.78296875 11.8125 172.625 C-3.25894029 190.72193388 -28.47095961 201.20718656 -51.2890625 204.1484375 C-66.74626275 204.97885396 -82.59205558 205.55200771 -97.2890625 200.1484375 C-98.35511719 199.76300781 -99.42117187 199.37757813 -100.51953125 198.98046875 C-135.13647931 185.42326096 -153.77419136 157.4058421 -173.13134766 127.48193359 C-175.8530174 123.27717249 -178.58558746 119.07958988 -181.32104492 114.88378906 C-182.57640902 112.95820047 -183.8305099 111.03178765 -185.08325195 109.10449219 C-187.83632607 104.87496955 -190.60570478 100.66030642 -193.4453125 96.48828125 C-193.91976807 95.78920654 -194.39422363 95.09013184 -194.88305664 94.36987305 C-195.74837568 93.10011997 -196.61952621 91.83431156 -197.49780273 90.57348633 C-200.2890625 86.47847389 -200.2890625 86.47847389 -200.2890625 83.1484375 C-171.83056448 75.1484375 -171.83056448 75.1484375 -166.2890625 75.1484375 C-166.44914795 74.58487549 -166.6092334 74.02131348 -166.77416992 73.44067383 C-171.08611896 54.24442466 -165.09843978 34.54889243 -155.2890625 18.1484375 C-140.18815463 -5.2911943 -116.7343815 -18.57516186 -90.0390625 -24.6640625 C-56.12089595 -31.01297969 -26.36883099 -21.32905442 0 0 Z " fill="#006CA9" transform="translate(200.2890625,25.8515625)"/>
<path d="M0 0 C9.70324683 9.12366947 14.31596701 20.07680883 17.02734375 32.90625 C-10.02810444 56.26227976 -38.36939837 63.75449313 -73.97265625 61.90625 C-79.56705959 61.26655115 -84.68276 59.85115796 -89.97265625 57.90625 C-91.03871094 57.52082031 -92.10476562 57.13539063 -93.203125 56.73828125 C-117.37370546 47.27223643 -137.0863053 29.70291313 -150.97265625 7.90625 C-150.97265625 7.24625 -150.97265625 6.58625 -150.97265625 5.90625 C-150.38403809 5.77162354 -149.79541992 5.63699707 -149.18896484 5.49829102 C-134.72951382 2.18655708 -120.28370004 -1.1815519 -105.84765625 -4.59375 C-104.62641052 -4.88220291 -104.62641052 -4.88220291 -103.38049316 -5.17648315 C-92.3193895 -7.79177242 -81.27501521 -10.45917197 -70.27685547 -13.33007812 C-45.59519041 -19.66794907 -20.15621499 -16.62067638 0 0 Z " fill="#213369" transform="translate(192.97265625,168.09375)"/>
<path d="M0 0 C3.9201032 3.53372753 7.35627784 7.34887723 10.6875 11.4375 C11.10918457 11.9521582 11.53086914 12.46681641 11.96533203 12.99707031 C13.36525581 14.71693428 14.74733509 16.4497691 16.125 18.1875 C16.57472168 18.74260254 17.02444336 19.29770508 17.48779297 19.86962891 C20.00695754 23.10241014 20.6875 24.18774329 20.6875 28.4375 C19.47094727 28.73406494 18.25439453 29.03062988 17.00097656 29.33618164 C11.31290397 30.72310925 5.62516896 32.1114182 -0.0625 33.5 C-1.59996384 33.87523804 -1.59996384 33.87523804 -3.16848755 34.25805664 C-16.59422418 37.53576804 -30.01542629 40.82820604 -43.40722656 44.24243164 C-68.19493946 50.51209851 -94.52945206 55.9478171 -117.875 42.4375 C-119.36403533 41.45225495 -120.84439479 40.45366983 -122.3125 39.4375 C-122.9209375 39.07269531 -123.529375 38.70789063 -124.15625 38.33203125 C-134.40768265 31.87828842 -140.84672392 20.78621776 -144.3125 9.4375 C-144.46484375 6.01953125 -144.46484375 6.01953125 -144.3125 3.4375 C-144.9725 3.1075 -145.6325 2.7775 -146.3125 2.4375 C-105.22378207 -38.48037087 -42.86985753 -36.24903011 0 0 Z " fill="#213368" transform="translate(202.3125,27.5625)"/>
<path d="M0 0 C3.71152384 3.34715049 6.07531982 7.07541012 8.625 11.3125 C14.74758516 21.42212944 21.42220645 31.17041893 28.01803589 40.97410583 C29.7802943 43.59454622 31.54008205 46.21664 33.29931641 48.83911133 C34.19944689 50.17902931 35.10119647 51.51786075 36.00439453 52.85571289 C37.33272938 54.82414942 38.65521094 56.79640265 39.9765625 58.76953125 C40.38266754 59.36836624 40.78877258 59.96720123 41.20718384 60.58418274 C44 64.77226098 44 64.77226098 44 67 C27.00871412 71.77643925 27.00871412 71.77643925 19.1875 73.8125 C17.84751953 74.16248047 17.84751953 74.16248047 16.48046875 74.51953125 C13.92619041 75.01429698 11.59508613 75.08852179 9 75 C9.15597656 75.76441406 9.31195313 76.52882813 9.47265625 77.31640625 C13.14700705 97.53750236 8.61776726 115.78574674 -2 133 C-4.1999565 136.12970003 -6.53738587 139.07603538 -9 142 C-9.51949219 142.73863281 -10.03898437 143.47726563 -10.57421875 144.23828125 C-11.04472656 144.81964844 -11.51523438 145.40101563 -12 146 C-12.66 146 -13.32 146 -14 146 C-14.21914062 145.10539063 -14.43828125 144.21078125 -14.6640625 143.2890625 C-16.73218668 135.40328818 -19.23667129 128.6976754 -24 122 C-24.40476563 121.38898438 -24.80953125 120.77796875 -25.2265625 120.1484375 C-33.94868507 108.42975749 -51.16464034 101.56586896 -65 99 C-68.49695147 98.65084881 -71.98859486 98.49749088 -75.5 98.375 C-76.4178125 98.33632812 -77.335625 98.29765625 -78.28125 98.2578125 C-80.52064528 98.16450436 -82.76005254 98.07871815 -85 98 C-82.14829955 96.45959481 -79.48764619 95.51093401 -76.33691406 94.76660156 C-74.95200775 94.43550385 -74.95200775 94.43550385 -73.53912354 94.09771729 C-72.54136902 93.86437683 -71.5436145 93.63103638 -70.515625 93.390625 C-69.46840271 93.1413324 -68.42118042 92.89203979 -67.34222412 92.63519287 C-63.97923309 91.83547733 -60.61471321 91.04243533 -57.25 90.25 C-52.87970012 89.21567844 -48.5100741 88.17853411 -44.140625 87.140625 C-43.05664429 86.88365845 -41.97266357 86.62669189 -40.85583496 86.36193848 C-32.2161616 84.30716487 -23.59786264 82.1726573 -14.98931885 79.99127197 C2.02187145 75.69342931 2.02187145 75.69342931 8 76 C4.03057988 62.62071923 -1.63354917 49.82366864 -13.2734375 41.34375 C-13.84320313 40.9003125 -14.41296875 40.456875 -15 40 C-15 39.34 -15 38.68 -15 38 C-16.0209375 37.62875 -16.0209375 37.62875 -17.0625 37.25 C-19.88979229 36.0468969 -22.47727861 34.60892656 -25.1328125 33.0703125 C-41.21584594 23.85116781 -57.81264442 21.81886198 -76 21 C-73.09315149 19.06210099 -71.32015432 18.4338081 -67.98828125 17.625 C-66.93906494 17.36662354 -65.88984863 17.10824707 -64.80883789 16.84204102 C-63.65504639 16.56416748 -62.50125488 16.28629395 -61.3125 16 C-59.45893417 15.54670185 -57.60537679 15.09336837 -55.75205994 14.63905334 C-54.40511621 14.30902973 -53.05799301 13.97973789 -51.71070862 13.65110779 C-45.93897593 12.24034962 -40.17982878 10.78226397 -34.421875 9.31640625 C-31.70163234 8.62645904 -28.98125508 7.93704506 -26.26083374 7.24780273 C-24.46595418 6.79195257 -22.67153697 6.334278 -20.87759399 5.87475586 C-18.33772349 5.2248072 -15.79606281 4.58234599 -13.25390625 3.94140625 C-12.49354065 3.74486954 -11.73317505 3.54833282 -10.94976807 3.34584045 C-7.22751164 2.41474913 -3.84296656 1.76498654 0 2 C0 1.34 0 0.68 0 0 Z " fill="#03B2DF" transform="translate(223,54)"/>
<path d="M0 0 C0.99 0 1.98 0 3 0 C3.20625 1.2375 3.4125 2.475 3.625 3.75 C6.4363451 16.18629742 13.78767196 27.89642945 24.5 34.875 C26.32009413 35.9396304 28.15252899 36.98361846 30 38 C30.66773437 38.38800781 31.33546875 38.77601562 32.0234375 39.17578125 C43.56366411 45.48151689 56.13462632 46.90261684 69 48 C65.07024942 50.33888641 60.71928913 51.12472479 56.3125 52.125 C54.42816591 52.56285849 52.54406773 53.00173299 50.66015625 53.44140625 C49.61230957 53.6852002 48.56446289 53.92899414 47.48486328 54.18017578 C41.45522273 55.59866625 35.43824745 57.06923555 29.41986084 58.53460693 C25.17166014 59.56812745 20.92216704 60.59631866 16.67285156 61.62524414 C13.75655808 62.33153957 10.84053152 63.03887313 7.92529297 63.74951172 C5.51366863 64.33714462 3.10088229 64.91963902 0.6875 65.5 C-0.54613281 65.7990625 -1.77976563 66.098125 -3.05078125 66.40625 C-6 67 -6 67 -10 67 C-10 67.66 -10 68.32 -10 69 C-14.455 69.495 -14.455 69.495 -19 70 C-16.08881294 86.09518361 -6.24597483 98.9664503 6.625 108.625 C25.07719514 120.86022477 44.255905 123.57112239 66 124 C62.74064056 125.80535733 59.55550934 126.73323849 55.9453125 127.62890625 C54.0897876 128.09200195 54.0897876 128.09200195 52.19677734 128.56445312 C50.83960809 128.89750181 49.48234635 129.2301738 48.125 129.5625 C46.71953636 129.90939404 45.31410072 130.25640155 43.90869141 130.60351562 C40.09271965 131.54340463 36.2746354 132.47442717 32.45581055 133.40264893 C29.92650442 134.01787706 27.3978051 134.6355583 24.86914062 135.25341797 C20.5492951 136.30756771 16.22733145 137.35262017 11.90374756 138.3913269 C10.22505274 138.79539111 8.54686367 139.20156259 6.86920166 139.6098938 C4.50550661 140.18417286 2.13983442 140.74947291 -0.2265625 141.3125 C-0.9252948 141.48398056 -1.6240271 141.65546112 -2.34393311 141.83213806 C-6.29663922 142.76092179 -9.95596698 143.56607082 -14 143 C-15.91186523 141.16186523 -15.91186523 141.16186523 -17.55859375 138.55859375 C-18.18427246 137.5936499 -18.80995117 136.62870605 -19.45458984 135.63452148 C-20.1089502 134.57950439 -20.76331055 133.5244873 -21.4375 132.4375 C-22.47704834 130.81920288 -22.47704834 130.81920288 -23.53759766 129.16821289 C-24.98700893 126.90997689 -26.4287806 124.64862354 -27.85986328 122.37890625 C-30.52360076 118.17332484 -33.24473361 114.00713945 -35.97265625 109.84301758 C-37.8422741 106.98748344 -39.70085184 104.12498844 -41.55859375 101.26171875 C-43.72757302 97.92942729 -45.92281933 94.6188077 -48.16015625 91.33203125 C-48.63404785 90.63408447 -49.10793945 89.9361377 -49.59619141 89.21704102 C-50.46084668 87.94901635 -51.33120497 86.68485263 -52.20849609 85.42553711 C-55 81.32984547 -55 81.32984547 -55 78 C-26.54150198 70 -26.54150198 70 -21 70 C-21.16008545 69.43643799 -21.3201709 68.87287598 -21.48510742 68.29223633 C-25.78499655 49.14967635 -19.86197667 29.3354793 -10 13 C-7.01159125 8.49125611 -3.82990483 3.82990483 0 0 Z " fill="#03B1DF" transform="translate(55,31)"/>
<path d="M0 0 C5.67049835 0.26515583 8.95153607 1.24170073 12.84823608 5.46981812 C17.05969658 10.94496739 20.46824299 16.88918203 23.88827515 22.87704468 C25.1234157 24.91648542 26.36555997 26.95170176 27.61483765 28.98251343 C29.91800568 32.7399037 32.17284084 36.51891868 34.38973999 40.32772827 C37.53210402 45.53323579 41.02637131 50.52075349 44.51327515 55.50204468 C44.84327515 37.68204468 45.17327515 19.86204468 45.51327515 1.50204468 C52.77327515 1.50204468 60.03327515 1.50204468 67.51327515 1.50204468 C67.51327515 31.86204468 67.51327515 62.22204468 67.51327515 93.50204468 C47.51327515 93.50204468 47.51327515 93.50204468 43.16171265 89.34579468 C42.28514904 87.74551472 41.41393641 86.14145124 40.59713745 84.50985718 C38.29779904 80.25042277 35.40501174 76.33825321 32.67733765 72.34579468 C31.43340748 70.48324123 30.19256505 68.61862221 28.9546814 66.75204468 C28.32835815 65.80845093 27.70203491 64.86485718 27.05673218 63.89266968 C26.42364136 62.93876343 25.79055054 61.98485718 25.13827515 61.00204468 C23.84291862 59.0539841 22.5473474 57.10606628 21.2515564 55.15829468 C18.42004052 50.90126398 15.59055878 46.64289004 12.76293945 42.38327026 C11.68137201 40.75509514 10.59753205 39.12843004 9.51327515 37.50204468 C9.18327515 55.98204468 8.85327515 74.46204468 8.51327515 93.50204468 C1.25327515 93.50204468 -6.00672485 93.50204468 -13.48672485 93.50204468 C-13.50927463 81.65438955 -13.52763922 69.80674857 -13.53853703 57.95907688 C-13.54376616 52.45833606 -13.55086436 46.95761063 -13.56216431 41.45687866 C-13.5729921 36.15307907 -13.57900146 30.84929433 -13.5816021 25.54548454 C-13.58345654 23.51718855 -13.58707752 21.48889342 -13.59245491 19.46060371 C-13.59966391 16.63007954 -13.60071586 13.7996175 -13.60025024 10.96908569 C-13.60384552 10.12176376 -13.6074408 9.27444183 -13.61114502 8.40144348 C-13.59459937 -0.83103081 -8.22381117 0.2953199 0 0 Z " fill="#213266" transform="translate(519.4867248535156,67.49795532226563)"/>
<path d="M0 0 C50.94181034 0 50.94181034 0 60 9 C67.20560726 18.04233068 67.61007639 25.69564341 67 37 C65.89278705 44.50714712 60.40090752 49.99878013 55 55 C54.34 55 53.68 55 53 55 C55.04138747 58.77098454 57.08316264 62.54175904 59.125 66.3125 C59.69476562 67.36501953 60.26453125 68.41753906 60.8515625 69.50195312 C61.41875 70.54931641 61.9859375 71.59667969 62.5703125 72.67578125 C63.1365332 73.72330566 63.70275391 74.77083008 64.28613281 75.85009766 C65.43671483 77.96474285 66.59769029 80.07376331 67.76855469 82.17724609 C68.31672852 83.16418457 68.86490234 84.15112305 69.4296875 85.16796875 C70.1719458 86.49284302 70.1719458 86.49284302 70.92919922 87.84448242 C72 90 72 90 72 92 C64.08 92 56.16 92 48 92 C46.96101563 89.70160156 45.92203125 87.40320313 44.8515625 85.03515625 C43.81477643 82.81325542 42.76481327 80.59805632 41.71337891 78.38305664 C40.99167969 76.84430585 40.28378738 75.29899851 39.59033203 73.74731445 C38.58837726 71.51190893 37.53843068 69.30511207 36.4765625 67.09765625 C36.02901108 66.05545677 36.02901108 66.05545677 35.57241821 64.99220276 C34.54028064 62.72781526 34.54028064 62.72781526 32 60 C28.7 59.67 25.4 59.34 22 59 C22 69.89 22 80.78 22 92 C14.74 92 7.48 92 0 92 C0 61.64 0 31.28 0 0 Z M22 18 C22 25.59 22 33.18 22 41 C24.371875 41.061875 26.74375 41.12375 29.1875 41.1875 C29.92508545 41.21481201 30.6626709 41.24212402 31.42260742 41.27026367 C35.84356414 41.32578683 38.49384501 40.68762249 42 38 C44.33772514 35.09799637 44.96474659 33.27699106 45.4375 29.5625 C44.90540254 25.2297064 43.93065301 23.23123281 41 20 C34.91385011 17.21051463 28.59778953 17.85173507 22 18 Z " fill="#213266" transform="translate(1013,69)"/>
<path d="M0 0 C7.92 0 15.84 0 24 0 C28.63837846 10.76032307 32.59551669 21.72872226 36.5625 32.75 C37.97810223 36.67273336 39.39629802 40.59452072 40.81640625 44.515625 C41.1687735 45.48862549 41.52114075 46.46162598 41.88418579 47.46411133 C44.1169501 53.61295831 46.39276398 59.74372182 48.71484375 65.859375 C48.99816055 66.60668884 49.28147736 67.35400269 49.57337952 68.1239624 C50.88805226 71.58725666 52.21090799 75.04713549 53.54516602 78.50292969 C54.23437134 80.31132324 54.23437134 80.31132324 54.9375 82.15625 C55.33839844 83.19587891 55.73929688 84.23550781 56.15234375 85.30664062 C57 88 57 88 57 92 C49.08 92 41.16 92 33 92 C32.01 89.07125 31.02 86.1425 30 83.125 C29.68675781 82.20348145 29.37351562 81.28196289 29.05078125 80.33251953 C28.80714844 79.60661621 28.56351563 78.88071289 28.3125 78.1328125 C28.06113281 77.38918457 27.80976562 76.64555664 27.55078125 75.87939453 C27 74 27 74 27 72 C11.655 72.495 11.655 72.495 -4 73 C-5.93285685 78.87770544 -5.93285685 78.87770544 -7.85913086 84.75756836 C-8.10026611 85.48596924 -8.34140137 86.21437012 -8.58984375 86.96484375 C-8.83597412 87.7137085 -9.08210449 88.46257324 -9.33569336 89.23413086 C-10 91 -10 91 -11 92 C-12.70772358 92.08713831 -14.41898649 92.10700007 -16.12890625 92.09765625 C-17.68061523 92.09282227 -17.68061523 92.09282227 -19.26367188 92.08789062 C-20.35228516 92.07951172 -21.44089844 92.07113281 -22.5625 92.0625 C-24.2012207 92.05573242 -24.2012207 92.05573242 -25.87304688 92.04882812 C-28.58208495 92.03699826 -31.29101599 92.02051543 -34 92 C-31.40441325 82.39511895 -27.77022665 73.1675017 -24.25 63.875 C-23.5899937 62.12561589 -22.93033164 60.37610187 -22.27099609 58.62646484 C-21.24252656 55.89770367 -20.21370645 53.16907831 -19.18356323 50.44094849 C-16.6812518 43.81384913 -14.19246474 37.18178295 -11.7109375 30.546875 C-11.36595215 29.62484283 -11.0209668 28.70281067 -10.66552734 27.75283813 C-9.32003148 24.15667506 -7.97459885 20.56048909 -6.63049316 16.96380615 C-5.70520556 14.48850743 -4.7785435 12.01372745 -3.8515625 9.5390625 C-3.43854385 8.43253326 -3.43854385 8.43253326 -3.0171814 7.3036499 C-1.11393429 2.22786858 -1.11393429 2.22786858 0 0 Z M11 23 C6.05 38.345 6.05 38.345 1 54 C7.6 54 14.2 54 21 54 C18.54109945 43.48136988 15.32062457 33.27351809 12 23 C11.67 23 11.34 23 11 23 Z " fill="#213267" transform="translate(856,69)"/>
<path d="M0 0 C2.28857367 1.66441722 4.40952538 3.21869592 6.34765625 5.28125 C6.34765625 9.34897485 4.80590121 10.37778495 2.09765625 13.34375 C0.91429687 14.66052734 0.91429687 14.66052734 -0.29296875 16.00390625 C-3.92182813 19.50659667 -3.92182813 19.50659667 -6.65234375 20.28125 C-8.546875 19.453125 -8.546875 19.453125 -10.46484375 18.03125 C-16.40702308 14.01863444 -21.54757073 12.74909125 -28.62890625 13.8125 C-31.36400374 14.44611332 -32.88914784 15.05808994 -34.65234375 17.28125 C-35.31914743 20.23845628 -35.31914743 20.23845628 -34.65234375 23.28125 C-31.52755463 27.38204378 -27.75376763 28.47421958 -22.96484375 29.78125 C-21.52490377 30.20316702 -20.08608531 30.62893124 -18.6484375 31.05859375 C-17.95862793 31.26468262 -17.26881836 31.47077148 -16.55810547 31.68310547 C-7.3571057 34.57094168 0.88474579 39.14328604 6.34765625 47.28125 C10.09963035 54.71493651 10.79735608 63.51084992 8.28515625 71.46875 C4.06914509 80.92576585 -3.2760475 85.55036772 -12.65234375 89.28125 C-24.60055738 93.28968296 -37.84667276 91.70256683 -49.26171875 86.69921875 C-54.88799375 83.77788365 -59.29526588 80.93412948 -63.65234375 76.28125 C-62.24602392 73.16228324 -60.55479479 70.82722146 -58.27734375 68.28125 C-57.65988281 67.5903125 -57.04242188 66.899375 -56.40625 66.1875 C-54.54169475 64.16099006 -52.63906305 62.18850053 -50.65234375 60.28125 C-47.6499967 61.69092988 -45.04091786 63.36219201 -42.33984375 65.28125 C-36.36977035 69.2873549 -30.88414239 70.92694631 -23.65234375 70.28125 C-21.10782959 69.49559324 -19.03939942 68.52251895 -16.65234375 67.28125 C-15.08804127 64.15264505 -15.29607091 61.72522075 -15.65234375 58.28125 C-20.41505887 53.18187727 -27.26388098 51.95534659 -33.72851562 50.01367188 C-43.49984726 46.95268842 -50.6033917 42.67605603 -56.65234375 34.28125 C-59.7939431 28.27123385 -59.72311459 20.22363353 -57.96484375 13.75 C-54.41965731 5.12337967 -49.40412758 0.17071841 -41.01953125 -3.7734375 C-28.50333658 -8.77165385 -11.15525538 -7.22873692 0 0 Z " fill="#213267" transform="translate(391.65234375,72.71875)"/>
<path d="M0 0 C4.20498383 3.13339118 7.41753748 6.55156148 10.625 10.6875 C7.12425018 14.86193363 3.64549157 19.0020494 -0.375 22.6875 C-1.035 22.6875 -1.695 22.6875 -2.375 22.6875 C-2.375 23.3475 -2.375 24.0075 -2.375 24.6875 C-5.92889347 24.10566788 -7.57867349 22.80621646 -10.125 20.3125 C-16.09110293 14.95181342 -21.75861399 13.04724113 -29.7890625 13.34375 C-35.92233638 14.15904925 -41.42029396 16.2244781 -45.75 20.75 C-51.22111608 28.02409752 -53.52321127 36.70026609 -52.375 45.6875 C-50.95786599 53.48759299 -48.12694063 59.33559349 -41.55859375 63.96875 C-34.32364898 68.06124401 -26.34973328 68.51655215 -18.3984375 66.41015625 C-12.41918825 64.27471009 -8.13612899 59.76846771 -3.375 55.6875 C3.555 62.1225 3.555 62.1225 10.625 68.6875 C6.9369625 77.90759375 -1.45591144 82.84507281 -10.375 86.6875 C-24.10384656 91.08734721 -39.00024264 91.27587147 -52.125 84.5625 C-64.4785412 76.85591471 -72.0710941 66.83011879 -75.375 52.6875 C-78.41178314 39.40692019 -76.14029137 25.32440924 -69.0625 13.6875 C-53.52233074 -8.59776401 -23.08136363 -15.13755606 0 0 Z " fill="#213268" transform="translate(695.375,74.3125)"/>
<path d="M0 0 C7.26 0 14.52 0 22 0 C22 24.09 22 48.18 22 73 C36.19 73 50.38 73 65 73 C65 79.27 65 85.54 65 92 C43.55 92 22.1 92 0 92 C0 61.64 0 31.28 0 0 Z " fill="#213267" transform="translate(740,69)"/>
<path d="M0 0 C5.78579591 8.67869386 2.84621179 23.19701675 1 33 C-2.10659593 45.8147082 -8.64211116 56.92502014 -17 67 C-17.52078125 67.74121094 -18.0415625 68.48242188 -18.578125 69.24609375 C-19.28195313 70.11427734 -19.28195313 70.11427734 -20 71 C-20.66 71 -21.32 71 -22 71 C-22.21914062 70.10539062 -22.43828125 69.21078125 -22.6640625 68.2890625 C-24.73218668 60.40328818 -27.23667129 53.6976754 -32 47 C-32.40476563 46.38898438 -32.80953125 45.77796875 -33.2265625 45.1484375 C-41.94868507 33.42975749 -59.16464034 26.56586896 -73 24 C-76.49695147 23.65084881 -79.98859486 23.49749088 -83.5 23.375 C-84.4178125 23.33632812 -85.335625 23.29765625 -86.28125 23.2578125 C-88.52064528 23.16450436 -90.76005254 23.07871815 -93 23 C-90.14829955 21.45959481 -87.48764619 20.51093401 -84.33691406 19.76660156 C-83.41364319 19.54586975 -82.49037231 19.32513794 -81.53912354 19.09771729 C-80.04249176 18.7477066 -80.04249176 18.7477066 -78.515625 18.390625 C-77.46840271 18.1413324 -76.42118042 17.89203979 -75.34222412 17.63519287 C-71.97923309 16.83547733 -68.61471321 16.04243533 -65.25 15.25 C-60.87970011 14.21567843 -56.51008327 13.17849556 -52.140625 12.140625 C-51.05664429 11.88374908 -49.97266357 11.62687317 -48.85583496 11.36221313 C-40.21511215 9.30775142 -31.59657145 7.17065919 -22.98931885 4.98028564 C-15.37190886 3.05242159 -7.72966516 1.41215037 0 0 Z " fill="#02B09B" transform="translate(231,129)"/>
<path d="M0 0 C0.99 0 1.98 0 3 0 C3.20625 1.2375 3.4125 2.475 3.625 3.75 C6.4363451 16.18629742 13.78767196 27.89642945 24.5 34.875 C26.32009413 35.9396304 28.15252899 36.98361846 30 38 C30.66773438 38.38800781 31.33546875 38.77601562 32.0234375 39.17578125 C43.56366411 45.48151689 56.13462632 46.90261684 69 48 C65.07024942 50.33888641 60.71928913 51.12472479 56.3125 52.125 C54.42816591 52.56285849 52.54406773 53.00173299 50.66015625 53.44140625 C49.61230957 53.6852002 48.56446289 53.92899414 47.48486328 54.18017578 C41.45522273 55.59866625 35.43824745 57.06923555 29.41986084 58.53460693 C25.17166014 59.56812745 20.92216704 60.59631866 16.67285156 61.62524414 C13.75655808 62.33153957 10.84053152 63.03887313 7.92529297 63.74951172 C5.51366863 64.33714462 3.10088229 64.91963902 0.6875 65.5 C-0.54613281 65.7990625 -1.77976562 66.098125 -3.05078125 66.40625 C-6 67 -6 67 -10 67 C-10 67.66 -10 68.32 -10 69 C-10.63808594 69.04898438 -11.27617188 69.09796875 -11.93359375 69.1484375 C-13.17302734 69.26058594 -13.17302734 69.26058594 -14.4375 69.375 C-15.67306641 69.47941406 -15.67306641 69.47941406 -16.93359375 69.5859375 C-17.95646484 69.79089844 -17.95646484 69.79089844 -19 70 C-19.495 70.99 -19.495 70.99 -20 72 C-25.31041424 59.23376416 -22.85434617 41.53925475 -18 29 C-13.65669754 18.57760793 -8.06448707 8.06448707 0 0 Z " fill="#04AF9B" transform="translate(55,31)"/>
<path d="M0 0 C7.26 0 14.52 0 22 0 C22 30.36 22 60.72 22 92 C14.41 92 6.82 92 -1 92 C-1.02254978 80.15234487 -1.04091436 68.30470389 -1.05181217 56.4570322 C-1.05704131 50.95629138 -1.06413951 45.45556595 -1.07543945 39.95483398 C-1.08626725 34.6510344 -1.0922766 29.34724965 -1.09487724 24.04343987 C-1.09673169 22.01514388 -1.10035267 19.98684874 -1.10573006 17.95855904 C-1.11293906 15.12803486 -1.113991 12.29757282 -1.11352539 9.46704102 C-1.11712067 8.61971909 -1.12071594 7.77239716 -1.12442017 6.8993988 C-1.11405216 1.11405216 -1.11405216 1.11405216 0 0 Z " fill="#213268" transform="translate(948,69)"/>
<path d="M0 0 C7.26 0 14.52 0 22 0 C22 30.36 22 60.72 22 92 C14.74 92 7.48 92 0 92 C0 61.64 0 31.28 0 0 Z " fill="#213369" transform="translate(440,69)"/>
<path d="M0 0 C7.26 0 14.52 0 22 0 C22 30.36 22 60.72 22 92 C14.74 92 7.48 92 0 92 C0 61.64 0 31.28 0 0 Z M9.3125 1.375 C8.15363281 1.46523437 6.99476563 1.55546875 5.80078125 1.6484375 C3.09879836 1.69669029 3.09879836 1.69669029 2 3 C1.90485408 5.70838086 1.87445068 8.39118513 1.88647461 11.09985352 C1.88632858 11.94856018 1.88618256 12.79726685 1.8860321 13.67169189 C1.88673152 16.49078891 1.89452522 19.30982071 1.90234375 22.12890625 C1.90420783 24.07803817 1.90563178 26.02717055 1.90663147 27.9763031 C1.91045745 33.11706832 1.92028841 38.25780547 1.93133545 43.39855957 C1.94154785 48.64005148 1.94612872 53.8815479 1.95117188 59.12304688 C1.96191061 69.41537892 1.97950805 79.70768274 2 90 C7.94 90 13.88 90 20 90 C20 60.96 20 31.92 20 2 C16.01642942 1.00410736 13.36376914 1.03928453 9.3125 1.375 Z " fill="#1B2B58" transform="translate(440,69)"/>
<path d="M0 0 C7.26 0 14.52 0 22 0 C22 30.36 22 60.72 22 92 C14.41 92 6.82 92 -1 92 C-1.02254978 80.15234487 -1.04091436 68.30470389 -1.05181217 56.4570322 C-1.05704131 50.95629138 -1.06413951 45.45556595 -1.07543945 39.95483398 C-1.08626725 34.6510344 -1.0922766 29.34724965 -1.09487724 24.04343987 C-1.09673169 22.01514388 -1.10035267 19.98684874 -1.10573006 17.95855904 C-1.11293906 15.12803486 -1.113991 12.29757282 -1.11352539 9.46704102 C-1.11712067 8.61971909 -1.12071594 7.77239716 -1.12442017 6.8993988 C-1.11405216 1.11405216 -1.11405216 1.11405216 0 0 Z M1 1 C-0.81115624 2.81115624 -0.11995376 5.29877501 -0.12442017 7.70901489 C-0.12082489 8.52828461 -0.11722961 9.34755432 -0.11352539 10.19165039 C-0.11367142 11.05011063 -0.11381744 11.90857086 -0.1139679 12.79304504 C-0.11326847 15.64460738 -0.1054747 18.49610525 -0.09765625 21.34765625 C-0.09579218 23.31920842 -0.09436822 25.29076105 -0.09336853 27.26231384 C-0.08954251 32.46226267 -0.07971152 37.66218375 -0.06866455 42.86212158 C-0.05845222 48.16393661 -0.05387129 53.4657561 -0.04882812 58.76757812 C-0.03808932 69.17839959 -0.02049185 79.58919315 0 90 C6.93 90.33 13.86 90.66 21 91 C21 61.63 21 32.26 21 2 C14.4 1.67 7.8 1.34 1 1 Z " fill="#19234B" transform="translate(948,69)"/>
<path d="M0 0 C14.19 0 28.38 0 43 0 C43 6.27 43 12.54 43 19 C21.55 19 0.1 19 -22 19 C-22 17.02 -22 15.04 -22 13 C-21.01 13.495 -21.01 13.495 -20 14 C-20 14.66 -20 15.32 -20 16 C10.195 16.495 10.195 16.495 41 17 C41 12.05 41 7.1 41 2 C27.47 2 13.94 2 0 2 C0 1.34 0 0.68 0 0 Z " fill="#23305A" transform="translate(762,142)"/>
<path d="M0 0 C2.38232602 1.69292003 4.64718106 3.46619797 6.88671875 5.34375 C8.86013396 6.89038226 10.72256153 7.97181107 13 9 C13 8.34 13 7.68 13 7 C13.99 7 14.98 7 16 7 C15.67 7.99 15.34 8.98 15 10 C14.34 10 13.68 10 13 10 C13 10.66 13 11.32 13 12 C9.44610653 11.41816788 7.79632651 10.11871646 5.25 7.625 C-0.71610293 2.26431342 -6.38361399 0.35974113 -14.4140625 0.65625 C-20.54733638 1.47154925 -26.04529396 3.5369781 -30.375 8.0625 C-35.8137095 15.29351149 -38.22226451 24.05077595 -37 33 C-36.33201215 35.64523191 -35.56151066 38.20015024 -34.65625 40.7734375 C-34 43 -34 43 -34 47 C-37.43867462 44.34152886 -37.84720813 41.39366149 -38.6875 37.25 C-38.93886719 36.05890625 -39.19023438 34.8678125 -39.44921875 33.640625 C-40.52380997 26.53765324 -40.38724932 20.37599872 -37 14 C-36.32033324 12.33859237 -35.65061095 10.67299959 -35 9 C-34.34 9 -33.68 9 -33 9 C-32.814375 8.443125 -32.62875 7.88625 -32.4375 7.3125 C-25.88006681 -3.23641427 -10.5532312 -4.57970411 0 0 Z " fill="#212D56" transform="translate(680,87)"/>
<path d="M0 0 C6.27 0 12.54 0 19 0 C19 29.7 19 59.4 19 90 C-1 90 -1 90 -5.796875 85.9140625 C-7.37890625 83.34375 -7.37890625 83.34375 -8.75 80.625 C-9.54470703 79.29082031 -9.54470703 79.29082031 -10.35546875 77.9296875 C-14 71.68191964 -14 71.68191964 -14 69 C-10.37732986 70.20755671 -9.9682155 71.20740317 -8 74.375 C-6.19471459 77.26157615 -4.44859743 79.64106951 -2 82 C-0.41086442 84.67643887 0 85.8180056 0 89 C5.94 89 11.88 89 18 89 C18 59.96 18 30.92 18 1 C12.06 1 6.12 1 0 1 C0 0.67 0 0.34 0 0 Z " fill="#1F2C5A" transform="translate(567,70)"/>
<path d="M0 0 C0.99 1.32 1.98 2.64 3 4 C-11.16444665 19.10874309 -30.59366303 29.43974547 -51 33 C-52.99950866 33.04432983 -55.00078255 33.05594276 -57 33 C-52.62295921 30.52157171 -47.74554761 29.37261363 -42.93164062 28.03125 C-38.5096934 26.72165738 -35.46486304 25.18686033 -32 22 C-32 22.66 -32 23.32 -32 24 C-30.9275 23.505 -29.855 23.01 -28.75 22.5 C-25.74583192 21.11346089 -24.54065105 21 -21 21 C-20.67 19.68 -20.34 18.36 -20 17 C-19.38125 16.87625 -18.7625 16.7525 -18.125 16.625 C-15.80879168 16.12802644 -15.80879168 16.12802644 -14 14 C-12.55627184 12.99942392 -11.09587576 12.02272288 -9.625 11.0625 C-3.67108396 7.70989216 -3.67108396 7.70989216 -0.25 2.3125 C-0.1675 1.549375 -0.085 0.78625 0 0 Z " fill="#202C54" transform="translate(207,196)"/>
<path d="M0 0 C5.50719921 3.90510489 10.35827355 8.09717644 15 13 C13.5682479 18.01113235 11.01554307 19.94469549 7 23 C7 19.3538596 7.08577934 17.02392714 9.5625 14.25 C10.036875 13.8375 10.51125 13.425 11 13 C7.56638098 9.36440339 4.2026393 6.63886654 0 4 C-0.38929688 4.47050781 -0.77859375 4.94101563 -1.1796875 5.42578125 C-5.94194061 10.7257081 -10.17578124 12.37815642 -17 14 C-17.99 14.495 -17.99 14.495 -19 15 C-21.6723621 15.13415472 -24.32250488 15.04318541 -27 15 C-26.67 14.34 -26.34 13.68 -26 13 C-23.78757667 12.46667411 -21.5532185 12.02303777 -19.3125 11.625 C-10.55592387 9.84174589 -6.0226595 6.30945281 0 0 Z " fill="#232E57" transform="translate(691,130)"/>
<path d="M0 0 C2 3.75 2 3.75 2 6 C2.66 6 3.32 6 4 6 C4.33 7.65 4.66 9.3 5 11 C5.99 11 6.98 11 8 11 C8.061875 11.680625 8.12375 12.36125 8.1875 13.0625 C9.5992642 18.16657056 12.36603632 21.94700119 16.8125 24.8125 C17.534375 25.204375 18.25625 25.59625 19 26 C19 26.66 19 27.32 19 28 C19.845625 28.268125 20.69125 28.53625 21.5625 28.8125 C25 30 25 30 28.3125 31.5625 C33.13759288 33.44346841 37.83762605 34 43 34 C43 34.66 43 35.32 43 36 C45.64 36 48.28 36 51 36 C51 36.33 51 36.66 51 37 C36.3141311 37.91363701 23.99784946 34.23611537 12.8125 24.8125 C6.72511207 19.14166739 0.25989268 10.84758522 -0.125 2.1875 C-0.08375 1.465625 -0.0425 0.74375 0 0 Z " fill="#212D54" transform="translate(621,127)"/>
<path d="M0 0 C-2.85410334 1.50560497 -5.68124642 2.63216796 -8.75 3.625 C-9.54921875 3.88539063 -10.3484375 4.14578125 -11.171875 4.4140625 C-11.77515625 4.60742188 -12.3784375 4.80078125 -13 5 C-11.700625 5.144375 -10.40125 5.28875 -9.0625 5.4375 C-5.125 5.875 -5.125 5.875 -4 7 C-2.65252916 7.23075082 -1.29622435 7.41153063 0.0625 7.5625 C1.361875 7.706875 2.66125 7.85125 4 8 C4 8.66 4 9.32 4 10 C4.556875 10.12375 5.11375 10.2475 5.6875 10.375 C8.22114364 11.05976855 10.57921032 11.99133763 13 13 C13 13.66 13 14.32 13 15 C11.80375 14.5875 10.6075 14.175 9.375 13.75 C8.12783203 13.34394531 8.12783203 13.34394531 6.85546875 12.9296875 C4.89233862 12.29052885 2.93681425 11.62767814 0.98828125 10.9453125 C-9.29646444 7.61037721 -19.25475446 7.21620212 -30 7 C-25.41496965 4.51943337 -20.60603897 3.55767035 -15.5625 2.375 C-14.62083984 2.14554688 -13.67917969 1.91609375 -12.70898438 1.6796875 C-11.79568359 1.463125 -10.88238281 1.2465625 -9.94140625 1.0234375 C-9.11326416 0.82669434 -8.28512207 0.62995117 -7.43188477 0.42724609 C-4.90606148 -0.0165036 -2.55915021 -0.07470723 0 0 Z " fill="#149A98" transform="translate(168,145)"/>
<path d="M0 0 C3.11429212 2.80286291 4.56171454 5.09330571 6 9 C0.77630511 10.46843868 -4.450395 11.92501718 -9.68261719 13.36279297 C-11.69816036 13.91700364 -13.71247269 14.47568686 -15.7265625 15.03515625 C-16.76554688 15.31230469 -17.80453125 15.58945313 -18.875 15.875 C-20.23238281 16.24238281 -20.23238281 16.24238281 -21.6171875 16.6171875 C-24.10597398 17.01702533 -25.63357845 16.80348267 -28 16 C-25.69 15.34 -23.38 14.68 -21 14 C-21 12.68 -21 11.36 -21 10 C-20.175 10.185625 -19.35 10.37125 -18.5 10.5625 C-14.35104742 11.08111907 -11.11683518 10.69776867 -7 10 C-6.67 9.67 -6.34 9.34 -6 9 C-4.33382885 8.95936168 -2.66611905 8.957279 -1 9 C-1 7.68 -1 6.36 -1 5 C-1.66 4.67 -2.32 4.34 -3 4 C-2.01 3.67 -1.02 3.34 0 3 C0 2.01 0 1.02 0 0 Z " fill="#19ACD2" transform="translate(261,112)"/>
<path d="M0 0 C0.87454834 0.00523682 1.74909668 0.01047363 2.65014648 0.01586914 C3.59438477 0.0190918 4.53862305 0.02231445 5.51147461 0.02563477 C6.50469727 0.03401367 7.49791992 0.04239258 8.52124023 0.05102539 C9.51833008 0.05553711 10.51541992 0.06004883 11.54272461 0.06469727 C14.01478872 0.07652532 16.48673541 0.0930069 18.95874023 0.11352539 C18.95874023 0.44352539 18.95874023 0.77352539 18.95874023 1.11352539 C17.17016602 1.2044043 17.17016602 1.2044043 15.34545898 1.29711914 C13.77904099 1.38153688 12.21263536 1.46618426 10.64624023 1.55102539 C9.86055664 1.5903418 9.07487305 1.6296582 8.26538086 1.67016602 C7.50805664 1.71206055 6.75073242 1.75395508 5.97045898 1.79711914 C5.2739624 1.83377686 4.57746582 1.87043457 3.85986328 1.90820312 C1.73708304 2.06933692 1.73708304 2.06933692 -1.04125977 3.11352539 C-1.37125977 31.16352539 -1.70125977 59.21352539 -2.04125977 88.11352539 C-2.37125977 88.11352539 -2.70125977 88.11352539 -3.04125977 88.11352539 C-3.06438231 76.78740909 -3.0821744 65.46129836 -3.09307194 54.13516331 C-3.09830096 48.87655875 -3.10539895 43.61797029 -3.11669922 38.359375 C-3.12752742 33.28899412 -3.13353646 28.21862877 -3.13613701 23.14823723 C-3.13799138 21.20925591 -3.14161222 19.27027548 -3.14698982 17.33130074 C-3.15419937 14.62530779 -3.15525074 11.91937983 -3.15478516 9.21337891 C-3.15838043 8.40345993 -3.16197571 7.59354095 -3.16567993 6.75907898 C-3.15333972 0.17537411 -3.15333972 0.17537411 0 0 Z " fill="#1C3752" transform="translate(509.041259765625,68.886474609375)"/>
<path d="M0 0 C8.69721116 1.03187251 8.69721116 1.03187251 13 2 C13.99580078 2.19916016 13.99580078 2.19916016 15.01171875 2.40234375 C20.76863191 3.65294787 20.76863191 3.65294787 23 7 C23.99 7.33 24.98 7.66 26 8 C26.33 8.99 26.66 9.98 27 11 C26.34 11 25.68 11 25 11 C24.67 13.31 24.34 15.62 24 18 C23.67 18 23.34 18 23 18 C22.90203125 17.39671875 22.8040625 16.7934375 22.703125 16.171875 C22.55359375 15.37265625 22.4040625 14.5734375 22.25 13.75 C22.11078125 12.96109375 21.9715625 12.1721875 21.828125 11.359375 C20.72410194 8.21395082 19.72077356 6.96308979 17 5 C14.10363497 4.24679769 11.2277012 3.9879004 8.25 3.75 C4.16625 3.37875 4.16625 3.37875 0 3 C0 10.59 0 18.18 0 26 C-2.19797403 21.60405194 -2.10073202 20.00732024 -1.625 15.25 C-1.51414062 14.07953125 -1.40328125 12.9090625 -1.2890625 11.703125 C-1.19367188 10.81109375 -1.09828125 9.9190625 -1 9 C-1.66 9 -2.32 9 -3 9 C-3.26218749 5.85375007 -3.24754367 4.38162983 -1.5 1.6875 C-1.005 1.130625 -0.51 0.57375 0 0 Z " fill="#212F58" transform="translate(1035,84)"/>
<path d="M0 0 C-1.093125 0.28875 -2.18625 0.5775 -3.3125 0.875 C-7.04013845 1.81893204 -7.04013845 1.81893204 -10 4 C-11.5159375 4.495 -11.5159375 4.495 -13.0625 5 C-16.08055734 5.78621891 -16.08055734 5.78621891 -18 8 C-18.66 8 -19.32 8 -20 8 C-20.99 9.485 -20.99 9.485 -22 11 C-22.66 11 -23.32 11 -24 11 C-24.103125 11.639375 -24.20625 12.27875 -24.3125 12.9375 C-24.539375 13.618125 -24.76625 14.29875 -25 15 C-25.99 15.33 -26.98 15.66 -28 16 C-28.33 16.99 -28.66 17.98 -29 19 C-29.66 19 -30.32 19 -31 19 C-28.13095713 10.65369348 -20.73406062 4.85977509 -13 1 C-4.47183419 -2.74957373 -4.47183419 -2.74957373 0 0 Z " fill="#202D59" transform="translate(658,70)"/>
<path d="M0 0 C1.11328125 1.61328125 1.11328125 1.61328125 2 4 C1.35546875 6.98046875 1.35546875 6.98046875 0.1875 10.1875 C-0.19019531 11.25355469 -0.56789063 12.31960937 -0.95703125 13.41796875 C-2 16 -2 16 -3 17 C-4.70772358 17.08713831 -6.41898649 17.10700007 -8.12890625 17.09765625 C-9.68061523 17.09282227 -9.68061523 17.09282227 -11.26367188 17.08789062 C-12.35228516 17.07951172 -13.44089844 17.07113281 -14.5625 17.0625 C-16.2012207 17.05573242 -16.2012207 17.05573242 -17.87304688 17.04882812 C-20.58208495 17.03699826 -23.29101599 17.02051543 -26 17 C-25.34 15.68 -24.68 14.36 -24 13 C-24 13.99 -24 14.98 -24 16 C-23.01 15.34 -22.02 14.68 -21 14 C-19.09887695 13.86474609 -19.09887695 13.86474609 -16.98828125 14.0234375 C-16.23095703 14.075 -15.47363281 14.1265625 -14.69335938 14.1796875 C-13.51483398 14.27636719 -13.51483398 14.27636719 -12.3125 14.375 C-11.51521484 14.43171875 -10.71792969 14.4884375 -9.89648438 14.546875 C-7.93026419 14.68816028 -5.96501176 14.84279906 -4 15 C-2.90364207 11.19959963 -1.81850737 7.40392284 -0.875 3.5625 C-0.441875 1.7990625 -0.441875 1.7990625 0 0 Z " fill="#222E55" transform="translate(848,144)"/>
<path d="M0 0 C0.88921143 0.09849243 0.88921143 0.09849243 1.79638672 0.19897461 C8.23550938 0.88149403 14.65684391 1.28542309 21.125 1.5625 C22.08148438 1.60568359 23.03796875 1.64886719 24.0234375 1.69335938 C26.34886156 1.79800346 28.67436461 1.90018319 31 2 C26.639215 4.32521562 22.13326126 5.44111962 17.375 6.6875 C16.50359375 6.92533203 15.6321875 7.16316406 14.734375 7.40820312 C13.90164062 7.62798828 13.06890625 7.84777344 12.2109375 8.07421875 C11.45087402 8.27619873 10.69081055 8.47817871 9.90771484 8.6862793 C8 9 8 9 6 8 C8 6 8 6 11.625 5.875 C13.295625 5.936875 13.295625 5.936875 15 6 C15 5.01 15 4.02 15 3 C14.08476563 2.95101562 13.16953125 2.90203125 12.2265625 2.8515625 C11.03804687 2.77679688 9.84953125 2.70203125 8.625 2.625 C7.44164063 2.55539063 6.25828125 2.48578125 5.0390625 2.4140625 C2 2 2 2 0 0 Z " fill="#14A1D0" transform="translate(90,153)"/>
<path d="M0 0 C3.33472589 3.09747266 5.84869988 6.50913584 8.328125 10.296875 C8.91892853 11.18732513 8.91892853 11.18732513 9.52166748 12.09576416 C10.76883906 13.97764537 12.00949484 15.86371944 13.25 17.75 C14.0985303 19.03283531 14.94748433 20.31539045 15.796875 21.59765625 C17.86949996 24.72855056 19.93629527 27.86321955 22 31 C21.67 31.66 21.34 32.32 21 33 C18.66475218 30.74259377 16.81294927 28.7194239 15 26 C15 25.01 15 24.02 15 23 C14.01 23 13.02 23 12 23 C11.6596875 22.01 11.6596875 22.01 11.3125 21 C9.85529507 17.66924588 8.02504625 14.79508436 6.0234375 11.76953125 C5 10 5 10 5 8 C4.360625 7.79375 3.72125 7.5875 3.0625 7.375 C1 6 1 6 0.25 2.875 C0.1675 1.92625 0.085 0.9775 0 0 Z " fill="#222D58" transform="translate(538,86)"/>
<path d="M0 0 C10.98675497 0.68554464 10.98675497 0.68554464 15.625 2.125 C22.06739254 3.79524992 27.95793798 2.51752584 34 0 C37.3125 -0.125 37.3125 -0.125 40 0 C35.5653025 4.4346975 27.22359915 5.17238873 21.125 5.375 C14.62166243 5.1631649 4.72536808 4.72536808 0 0 Z " fill="#233057" transform="translate(344,159)"/>
<path d="M0 0 C7.92 0 15.84 0 24 0 C24.66 1.98 25.32 3.96 26 6 C25.34 6 24.68 6 24 6 C23.67 4.68 23.34 3.36 23 2 C12.11 2.495 12.11 2.495 1 3 C0.67 4.32 0.34 5.64 0 7 C-0.66 7 -1.32 7 -2 7 C-1.125 2.25 -1.125 2.25 0 0 Z " fill="#212C54" transform="translate(856,69)"/>
<path d="M0 0 C9.9265286 4.37030794 19.45980861 10.19708837 26 19 C24.35 19 22.7 19 21 19 C20.7525 18.030625 20.505 17.06125 20.25 16.0625 C19.8375 15.051875 19.425 14.04125 19 13 C17.17323569 12.14681461 17.17323569 12.14681461 15 12 C13.3255761 11.3530635 11.65697379 10.69040574 10 10 C10 9.34 10 8.68 10 8 C8.02 7.01 6.04 6.02 4 5 C4 4.34 4 3.68 4 3 C2.68 2.67 1.36 2.34 0 2 C0 1.34 0 0.68 0 0 Z " fill="#242F57" transform="translate(176,10)"/>
<path d="M0 0 C0.66 0 1.32 0 2 0 C2.85732434 1.17695398 3.66038693 2.39361015 4.4375 3.625 C8.20668716 8.90750171 13.23344736 11.29115676 19 14 C19 14.66 19 15.32 19 16 C19.99 16 20.98 16 22 16 C22 16.66 22 17.32 22 18 C23.65 18 25.3 18 27 18 C27.33 18.99 27.66 19.98 28 21 C19.08186254 19.21637251 10.94266164 13.81658247 5 7 C4.30583984 6.20529297 4.30583984 6.20529297 3.59765625 5.39453125 C0 1.19892659 0 1.19892659 0 0 Z " fill="#0F4567" transform="translate(67,53)"/>
<path d="M0 0 C2.67927341 4.01891012 2.15601248 6.24161923 2 11 C1.34 11 0.68 11 0 11 C0 8.03 0 5.06 0 2 C-0.82242188 2.28875 -1.64484375 2.5775 -2.4921875 2.875 C-9.53781501 5.21811862 -15.57359725 6.6035 -23 6 C-20.10710817 4.07140545 -18.64502085 3.56274284 -15.33203125 2.9296875 C-14.43935547 2.75566406 -13.54667969 2.58164063 -12.62695312 2.40234375 C-11.69818359 2.22832031 -10.76941406 2.05429688 -9.8125 1.875 C-8.87212891 1.69324219 -7.93175781 1.51148438 -6.96289062 1.32421875 C-4.64302171 0.87673135 -2.32212941 0.43557758 0 0 Z " fill="#12A3A3" transform="translate(231,129)"/>
<path d="M0 0 C0.66 0.33 1.32 0.66 2 1 C2.26645576 4.64156201 2.17488269 6.67122054 0.4375 9.9375 C-2.32975881 15.62719102 -0.65214602 22.89497043 0 29 C-0.66 29.33 -1.32 29.66 -2 30 C-4.35022654 19.70828218 -3.02365197 9.98885027 0 0 Z " fill="#222D55" transform="translate(622,97)"/>
<path d="M0 0 C0.66 0.66 1.32 1.32 2 2 C1.979375 3.0725 1.95875 4.145 1.9375 5.25 C2.00619243 9.37154562 3.01959864 11.45178089 5 15 C5 15.66 5 16.32 5 17 C5.99 17.33 6.98 17.66 8 18 C9.1875 21.5625 9.1875 21.5625 10 25 C4.64232131 21.12485706 1.21777317 17.64137403 0 11 C-0.21409577 7.31657953 -0.18284006 3.68388864 0 0 Z " fill="#212C55" transform="translate(333,90)"/>
<path d="M0 0 C0.99 0.33 1.98 0.66 3 1 C2.690625 1.7425 2.38125 2.485 2.0625 3.25 C0.97470143 5.86985352 0.97470143 5.86985352 0.5 8.1875 C0 10 0 10 -2 12 C-2.76676311 14.02044877 -3.46795386 16.06625542 -4.125 18.125 C-4.47820313 19.22070312 -4.83140625 20.31640625 -5.1953125 21.4453125 C-5.59363281 22.70988281 -5.59363281 22.70988281 -6 24 C-6.66 24 -7.32 24 -8 24 C-6.5102402 15.50836915 -3.31428738 7.9105161 0 0 Z " fill="#222F57" transform="translate(847,93)"/>
<path d="M0 0 C-9.65917426 5.05632831 -19.17587401 6.67975959 -30 7 C-25.41496965 4.51943337 -20.60603897 3.55767035 -15.5625 2.375 C-14.62083984 2.14554688 -13.67917969 1.91609375 -12.70898438 1.6796875 C-11.79568359 1.463125 -10.88238281 1.2465625 -9.94140625 1.0234375 C-9.11326416 0.82669434 -8.28512207 0.62995117 -7.43188477 0.42724609 C-4.90606148 -0.0165036 -2.55915021 -0.07470723 0 0 Z " fill="#109BA9" transform="translate(168,145)"/>
<path d="M0 0 C1.10214844 0.47566406 1.10214844 0.47566406 2.2265625 0.9609375 C7.58635701 2.43682294 12.83867692 2.46849617 18.375 2.625 C20.05142578 2.68300781 20.05142578 2.68300781 21.76171875 2.7421875 C24.50765161 2.83606555 27.25358476 2.92174911 30 3 C30 3.33 30 3.66 30 4 C28.69796631 4.02187378 28.69796631 4.02187378 27.36962891 4.04418945 C24.15261121 4.10520111 20.93624337 4.17934391 17.71972656 4.26245117 C16.32693911 4.29572873 14.93401589 4.32375197 13.54101562 4.34643555 C11.54008622 4.37992689 9.53953079 4.43381305 7.5390625 4.48828125 C5.73236084 4.52755737 5.73236084 4.52755737 3.88916016 4.56762695 C2.45902588 4.78165161 2.45902588 4.78165161 1 5 C0.34 5.99 -0.32 6.98 -1 8 C-1.33 6.68 -1.66 5.36 -2 4 C-1.34 4 -0.68 4 0 4 C-0.33 3.01 -0.66 2.02 -1 1 C-0.67 0.67 -0.34 0.34 0 0 Z " fill="#233154" transform="translate(851,137)"/>
<path d="M0 0 C1.32 0 2.64 0 4 0 C2.63835184 5.14400416 -0.6884072 8.1256048 -5 11 C-7.2265625 11.671875 -7.2265625 11.671875 -9 12 C-8.67 10.68 -8.34 9.36 -8 8 C-7.34 8 -6.68 8 -6 8 C-5.67 7.01 -5.34 6.02 -5 5 C-3.02 4.67 -1.04 4.34 1 4 C0.67 2.68 0.34 1.36 0 0 Z " fill="#202C5D" transform="translate(393,147)"/>
<path d="M0 0 C2.25 0.4375 2.25 0.4375 5 2 C6.68445543 4.86642925 7.83706885 7.89170475 9 11 C9.4125 12.010625 9.825 13.02125 10.25 14.0625 C10.4975 14.701875 10.745 15.34125 11 16 C11.66 16 12.32 16 13 16 C13.33 17.65 13.66 19.3 14 21 C10.02889325 17.46497273 7.49606802 13.30280018 4.75 8.8125 C4.29109375 8.07580078 3.8321875 7.33910156 3.359375 6.58007812 C0 1.1460891 0 1.1460891 0 0 Z " fill="#2EACC9" transform="translate(9,124)"/>
<path d="M0 0 C0.66 0 1.32 0 2 0 C0.40554307 8.26218593 -2.26018069 16.06288986 -5 24 C-5.66 23.01 -6.32 22.02 -7 21 C-6.649375 20.38125 -6.29875 19.7625 -5.9375 19.125 C-5.628125 18.42375 -5.31875 17.7225 -5 17 C-5.33 16.34 -5.66 15.68 -6 15 C-5.34 15 -4.68 15 -4 15 C-4.33 14.01 -4.66 13.02 -5 12 C-4.1875 8.875 -4.1875 8.875 -3 6 C-2.34 5.67 -1.68 5.34 -1 5 C-0.34444881 2.47266765 -0.34444881 2.47266765 0 0 Z " fill="#202D56" transform="translate(863,98)"/>
<path d="M0 0 C2.39051374 1.85928846 4.68077866 3.65797714 6.75 5.875 C9.49195211 8.46462144 12.52489249 10.33619994 15.75 12.25 C16.35199219 12.61351563 16.95398438 12.97703125 17.57421875 13.3515625 C19.04638031 14.23953297 20.5227674 15.12049158 22 16 C19 17 19 17 16.44140625 15.92578125 C15.49136719 15.39339844 14.54132813 14.86101562 13.5625 14.3125 C12.61503906 13.79300781 11.66757813 13.27351563 10.69140625 12.73828125 C8.05903594 11.03812917 6.04263492 9.37100176 4 7 C4 6.34 4 5.68 4 5 C3.01 5 2.02 5 1 5 C0.67 3.35 0.34 1.7 0 0 Z " fill="#159C9B" transform="translate(68,56)"/>
<path d="M0 0 C-6.71631172 5.91035431 -14.55831753 5.24950786 -23 5 C-16.57067093 0.71378062 -7.65663132 -0.53418358 0 0 Z " fill="#133E73" transform="translate(137,153)"/>
<path d="M0 0 C0 1.66666667 0 3.33333333 0 5 C0.20625 5.556875 0.4125 6.11375 0.625 6.6875 C1.17702366 10.0916459 0.05595895 12.77000791 -1 16 C-3.79790503 13.20209497 -3.4115071 10.82020154 -3.65625 6.99609375 C-3.82640625 6.00802734 -3.82640625 6.00802734 -4 5 C-4.66 4.67 -5.32 4.34 -6 4 C-4.02 2.68 -2.04 1.36 0 0 Z " fill="#193A64" transform="translate(62,26)"/>
<path d="M0 0 C2.58329491 0.9328565 4.70164083 1.75726712 6.84375 3.5 C9.34370112 5.23909643 11.26377845 5.67669895 14.25 6.1875 C15.14203125 6.34605469 16.0340625 6.50460938 16.953125 6.66796875 C17.62859375 6.77753906 18.3040625 6.88710937 19 7 C19.33 7.99 19.66 8.98 20 10 C12.23478115 8.38388846 5.70496786 6.28372947 -1 2 C-0.67 1.34 -0.34 0.68 0 0 Z " fill="#233058" transform="translate(344,114)"/>
<path d="M0 0 C0.66 0 1.32 0 2 0 C2.33 1.98 2.66 3.96 3 6 C3.66 6 4.32 6 5 6 C5.33 7.65 5.66 9.3 6 11 C6.66 11 7.32 11 8 11 C7.625 13.9375 7.625 13.9375 7 17 C6.34 17.33 5.68 17.66 5 18 C4.16112944 15.56427941 3.32873471 13.12666783 2.5 10.6875 C2.14228516 9.65206055 2.14228516 9.65206055 1.77734375 8.59570312 C0.76791737 5.61068511 0 3.17341086 0 0 Z " fill="#222E59" transform="translate(870,99)"/>
<path d="M0 0 C1.23556641 0.01740234 1.23556641 0.01740234 2.49609375 0.03515625 C3.32238281 0.04417969 4.14867187 0.05320313 5 0.0625 C5.63808594 0.07410156 6.27617187 0.08570313 6.93359375 0.09765625 C6.93359375 0.42765625 6.93359375 0.75765625 6.93359375 1.09765625 C3.54001031 1.94033712 0.1434029 2.77013526 -3.25390625 3.59765625 C-4.21361328 3.83613281 -5.17332031 4.07460937 -6.16210938 4.3203125 C-7.55913086 4.65869141 -7.55913086 4.65869141 -8.984375 5.00390625 C-9.83797607 5.21337891 -10.69157715 5.42285156 -11.57104492 5.63867188 C-14.12586932 6.10859359 -16.47485384 6.17883252 -19.06640625 6.09765625 C-15.02997536 3.40670233 -11.61532734 2.0845855 -6.81640625 1.53515625 C-3.54277686 1.15323282 -2.84181249 0.13430116 0 0 Z " fill="#0F477B" transform="translate(192.06640625,60.90234375)"/>
<path d="M0 0 C3.08089673 2.77280706 4.68775452 5.06326356 6 9 C3.69 9 1.38 9 -1 9 C-1 7.68 -1 6.36 -1 5 C-1.66 4.67 -2.32 4.34 -3 4 C-2.01 3.67 -1.02 3.34 0 3 C0 2.01 0 1.02 0 0 Z " fill="#13ADD4" transform="translate(261,112)"/>
<path d="M0 0 C6.93 0 13.86 0 21 0 C16.55204634 3.33596525 15.29213607 3.40878319 9.9375 3.375 C8.70902344 3.38273437 7.48054687 3.39046875 6.21484375 3.3984375 C3 3 3 3 0 0 Z " fill="#222E57" transform="translate(856,123)"/>
<path d="M0 0 C-0.99 0.33 -1.98 0.66 -3 1 C-3.33 1.66 -3.66 2.32 -4 3 C-6.48412207 3.82804069 -8.35220307 4 -11 4 C-13.06343295 4.15468841 -15.12589054 4.32265725 -17.1875 4.5 C-18.81751953 4.63921875 -18.81751953 4.63921875 -20.48046875 4.78125 C-21.31191406 4.8534375 -22.14335937 4.925625 -23 5 C-19.50412041 2.66941361 -16.07958685 1.80868 -12.0625 0.8125 C-11.34642578 0.62236328 -10.63035156 0.43222656 -9.89257812 0.23632812 C-6.19660167 -0.6919477 -3.63448981 -1.1215946 0 0 Z " fill="#1A98C7" transform="translate(222,57)"/>
<path d="M0 0 C0.33 0.66 0.66 1.32 1 2 C-5.27 2.99 -11.54 3.98 -18 5 C-18 4.34 -18 3.68 -18 3 C-11.88595404 1.14256832 -6.41481258 -0.42765417 0 0 Z " fill="#242F56" transform="translate(118,1)"/>
<path d="M0 0 C5.51858459 1.33783869 8.85009807 5.5122365 12 10 C12.703125 12.2578125 12.703125 12.2578125 13 14 C12.34 14 11.68 14 11 14 C10.67 12.35 10.34 10.7 10 9 C9.34 9 8.68 9 8 9 C7.67 8.34 7.34 7.68 7 7 C6.01 6.67 5.02 6.34 4 6 C4 5.34 4 4.68 4 4 C2.68 3.34 1.36 2.68 0 2 C0 1.34 0 0.68 0 0 Z " fill="#232E54" transform="translate(386,110)"/>
<path d="M0 0 C0.99 0.33 1.98 0.66 3 1 C5.14255793 0.61067144 5.14255793 0.61067144 7 0 C7 0.99 7 1.98 7 3 C0.25 7 0.25 7 -2 7 C-2 5.02 -2 3.04 -2 1 C-1.34 0.67 -0.68 0.34 0 0 Z " fill="#202E5B" transform="translate(689,152)"/>
<path d="M0 0 C0.66 0.99 1.32 1.98 2 3 C-3.96583144 12.59453303 -3.96583144 12.59453303 -9 16 C-9 15.01 -9 14.02 -9 13 C-8.34 13 -7.68 13 -7 13 C-6.67 12.01 -6.34 11.02 -6 10 C-5.34 10 -4.68 10 -4 10 C-3.34 7.69 -2.68 5.38 -2 3 C-1.34 3 -0.68 3 0 3 C0 2.01 0 1.02 0 0 Z " fill="#202B55" transform="translate(1077,107)"/>
<path d="M0 0 C1.32 0 2.64 0 4 0 C4 0.66 4 1.32 4 2 C5.65 2 7.3 2 9 2 C6.3851183 3.74325447 4.9946567 4.41587957 2.0625 5.125 C1.39347656 5.29257813 0.72445312 5.46015625 0.03515625 5.6328125 C-2 6 -2 6 -6 6 C-6 5.34 -6 4.68 -6 4 C-4.02 4 -2.04 4 0 4 C0 2.68 0 1.36 0 0 Z " fill="#134175" transform="translate(156,67)"/>
<path d="M0 0 C0.69222656 0.59748047 0.69222656 0.59748047 1.3984375 1.20703125 C6.62104158 5.44910689 11.4722806 7.47508194 18 9 C17.01 9.66 16.02 10.32 15 11 C9.2447732 9.82763899 3.74166672 7.72631586 0 3 C0 2.01 0 1.02 0 0 Z " fill="#222C55" transform="translate(647,133)"/>
<path d="M0 0 C-1.27057182 0.47985967 -2.54146848 0.9588593 -3.8125 1.4375 C-4.87404297 1.83775391 -4.87404297 1.83775391 -5.95703125 2.24609375 C-9.39953953 3.51646488 -12.03046718 4.11550048 -15.6875 4.0625 C-16.89986328 4.04896484 -16.89986328 4.04896484 -18.13671875 4.03515625 C-19.05904297 4.01775391 -19.05904297 4.01775391 -20 4 C-16.76393248 2.21860706 -13.57342755 1.22819081 -10 0.3125 C-8.96875 0.04050781 -7.9375 -0.23148438 -6.875 -0.51171875 C-4.11053448 -0.98122716 -2.60249272 -0.93214283 0 0 Z " fill="#0DA2A9" transform="translate(208,136)"/>
<path d="M0 0 C-3.39885971 1.91238053 -6.77453604 2.80407268 -10.5625 3.6875 C-11.69816406 3.95949219 -12.83382812 4.23148437 -14.00390625 4.51171875 C-17 5 -17 5 -20 4 C-16.17679443 2.57741188 -13.08718695 1.75957724 -9 2 C-9 1.34 -9 0.68 -9 0 C-5.52176885 -1.15941038 -3.54104422 -0.70820884 0 0 Z " fill="#0AA5A8" transform="translate(66,93)"/>
<path d="M0 0 C-0.92683594 0.27714844 -1.85367188 0.55429688 -2.80859375 0.83984375 C-4.60490234 1.38318359 -4.60490234 1.38318359 -6.4375 1.9375 C-8.22994141 2.47697266 -8.22994141 2.47697266 -10.05859375 3.02734375 C-12.85867545 3.70889142 -12.85867545 3.70889142 -14 5 C-15.51928038 5.07179964 -17.04167482 5.08392007 -18.5625 5.0625 C-19.38878906 5.05347656 -20.21507812 5.04445313 -21.06640625 5.03515625 C-21.70449219 5.02355469 -22.34257812 5.01195313 -23 5 C-19.36377208 2.94998375 -15.50428596 1.88938079 -11.5 0.8125 C-10.83613281 0.62236328 -10.17226562 0.43222656 -9.48828125 0.23632812 C-6.02469674 -0.70042976 -3.40419264 -1.36341389 0 0 Z " fill="#1C99CC" transform="translate(177,68)"/>
<path d="M0 0 C3.7701092 3.16202707 4.33087434 5.22053097 5 10 C5.93942486 12.02915769 6.92598385 14.03875312 8 16 C7.01 16.33 6.02 16.66 5 17 C4.16301614 14.54285453 3.33027576 12.08441143 2.5 9.625 C2.26152344 8.92632812 2.02304687 8.22765625 1.77734375 7.5078125 C0 2.2265625 0 2.2265625 0 0 Z " fill="#232E56" transform="translate(883,141)"/>
<path d="M0 0 C0.99 0 1.98 0 3 0 C3.33 0.99 3.66 1.98 4 3 C1.69 4.98 -0.62 6.96 -3 9 C-3 5.03616548 -2.84763523 2.84763523 0 0 Z " fill="#1C2D5E" transform="translate(701,144)"/>
<path d="M0 0 C2.26546852 3.39820279 3.38901628 6.83942278 4.625 10.6875 C4.85445312 11.38939453 5.08390625 12.09128906 5.3203125 12.81445312 C5.88429209 14.54164062 6.44269339 16.27064782 7 18 C6.34 18 5.68 18 5 18 C1.50404312 11.91026866 0.28688725 7.00004889 0 0 Z " fill="#222D56" transform="translate(890,97)"/>
<path d="M0 0 C-0.67546875 0.19335938 -1.3509375 0.38671875 -2.046875 0.5859375 C-2.93890625 0.84632812 -3.8309375 1.10671875 -4.75 1.375 C-5.63171875 1.63023438 -6.5134375 1.88546875 -7.421875 2.1484375 C-9.97753153 2.9100597 -9.97753153 2.9100597 -12.09375 4.125 C-15.13243896 5.51980805 -17.80960215 4.61353805 -21 4 C-17.61847808 2.10203794 -14.26563452 1.19776958 -10.5 0.3125 C-9.3759375 0.04050781 -8.251875 -0.23148437 -7.09375 -0.51171875 C-4.2315358 -0.9634571 -2.67758663 -0.97784414 0 0 Z " fill="#007A9F" transform="translate(66,95)"/>
<path d="M0 0 C3.38818502 1.43605193 5.3186598 3.20466579 7.6875 6 C8.28949219 6.70125 8.89148438 7.4025 9.51171875 8.125 C11 10 11 10 12 12 C10.66666667 11.33333333 9.33333333 10.66666667 8 10 C6.948125 9.525625 5.89625 9.05125 4.8125 8.5625 C2 7 2 7 1 4 C0.65772583 2.66893378 0.32248257 1.33599921 0 0 Z " fill="#212D57" transform="translate(202,29)"/>
<path d="M0 0 C2.43929614 0.45005464 4.87611777 0.90964876 7.3125 1.375 C8.34793945 1.56449219 8.34793945 1.56449219 9.40429688 1.7578125 C12.83703314 2.42114318 15.05246458 3.03497639 18 5 C15.56152549 4.88602456 13.12486826 4.75929026 10.6875 4.625 C9.65206055 4.57859375 9.65206055 4.57859375 8.59570312 4.53125 C4.93009211 4.31875081 3.12099208 4.08066139 0 2 C0 1.34 0 0.68 0 0 Z " fill="#262F5B" transform="translate(145,0)"/>
<path d="M0 0 C-1.32 0.33 -2.64 0.66 -4 1 C-4 1.66 -4 2.32 -4 3 C-7.3 3.33 -10.6 3.66 -14 4 C-14 3.34 -14 2.68 -14 2 C-8.79666866 -0.24281523 -5.65735415 -1.55577239 0 0 Z " fill="#0C679E" transform="translate(142,150)"/>
<path d="M0 0 C0.66 0.33 1.32 0.66 2 1 C-0.97 3.97 -0.97 3.97 -4 7 C-6.4375 6.1875 -6.4375 6.1875 -9 5 C-9.33 4.01 -9.66 3.02 -10 2 C-9.0925 2.226875 -8.185 2.45375 -7.25 2.6875 C-4.00496499 3.32605545 -4.00496499 3.32605545 -1.625 1.5625 C-1.08875 1.046875 -0.5525 0.53125 0 0 Z " fill="#222C58" transform="translate(391,86)"/>
<path d="M0 0 C0.86625 0.00386719 1.7325 0.00773437 2.625 0.01171875 C5 0.3125 5 0.3125 8 2.3125 C4.32612505 3.16548376 0.9552607 3.42039471 -2.8125 3.375 C-4.27623047 3.36146484 -4.27623047 3.36146484 -5.76953125 3.34765625 C-6.87361328 3.33025391 -6.87361328 3.33025391 -8 3.3125 C-5.53286114 0.23669201 -3.8818627 -0.07509556 0 0 Z " fill="#1F2C59" transform="translate(367,82.6875)"/>
<path d="M0 0 C4.23431576 3.60700972 6.4692099 8.14586161 9 13 C8.01 13 7.02 13 6 13 C5.566875 12.071875 5.13375 11.14375 4.6875 10.1875 C3.25030123 7.07187582 3.25030123 7.07187582 1.3125 5.375 C0 4 0 4 0 0 Z " fill="#222B58" transform="translate(528,71)"/>
<path d="M0 0 C0.66 0.33 1.32 0.66 2 1 C-0.69416167 4.32808207 -4.10435792 5.42807425 -8 7 C-8.763125 7.4125 -9.52625 7.825 -10.3125 8.25 C-10.869375 8.4975 -11.42625 8.745 -12 9 C-12.66 8.67 -13.32 8.34 -14 8 C-11.7136988 6.63597957 -9.42178251 5.28365726 -7.125 3.9375 C-6.47402344 3.54755859 -5.82304688 3.15761719 -5.15234375 2.75585938 C-3.46934275 1.77555467 -1.73703801 0.88101568 0 0 Z " fill="#243059" transform="translate(86,9)"/>
<path d="M0 0 C1.32 0 2.64 0 4 0 C4.33 0.66 4.66 1.32 5 2 C7.01669827 3.13350534 7.01669827 3.13350534 9 4 C9 4.66 9 5.32 9 6 C10.32 6.33 11.64 6.66 13 7 C13 7.66 13 8.32 13 9 C7.97290493 7.42903279 3.97133531 4.38006951 0 1 C0 0.67 0 0.34 0 0 Z " fill="#232E54" transform="translate(72,208)"/>
<path d="M0 0 C-0.78375 0.309375 -1.5675 0.61875 -2.375 0.9375 C-4.92330128 1.92875038 -4.92330128 1.92875038 -7 3 C-6.67 4.98 -6.34 6.96 -6 9 C-10 4.375 -10 4.375 -10 1 C-3.71428571 -1.42857143 -3.71428571 -1.42857143 0 0 Z " fill="#23AACB" transform="translate(10,108)"/>
<path d="M0 0 C6.93 0 13.86 0 21 0 C21 0.33 21 0.66 21 1 C19.83082031 1.06058594 18.66164063 1.12117188 17.45703125 1.18359375 C15.90884386 1.26804034 14.36066732 1.35268625 12.8125 1.4375 C12.04357422 1.47681641 11.27464844 1.51613281 10.48242188 1.55664062 C6.56748925 1.77507034 2.82879312 2.08692108 -1 3 C-0.67 2.01 -0.34 1.02 0 0 Z " fill="#232B4E" transform="translate(507,69)"/>
<path d="M0 0 C1.875 0.25 1.875 0.25 4 1 C5.87380446 3.49840595 6.05001932 4.63319166 5.625 7.75 C5.41875 8.4925 5.2125 9.235 5 10 C2.35534962 6.8745041 1.15585285 3.91211733 0 0 Z " fill="#1F2E56" transform="translate(1056,149)"/>
<path d="M0 0 C2.72426311 2.35277269 3.8141763 4.62496331 5 8 C4.01 7.67 3.02 7.34 2 7 C2 7.66 2 8.32 2 9 C-0.51083114 7.74458443 -0.87125446 6.49936512 -2 4 C-1.34 4 -0.68 4 0 4 C0 2.68 0 1.36 0 0 Z " fill="#12ABD8" transform="translate(244,86)"/>
<path d="M0 0 C2.92879371 0.62759865 5.36095629 1.58622659 8 3 C8 3.66 8 4.32 8 5 C8.66 5 9.32 5 10 5 C10 5.66 10 6.32 10 7 C10.66 7 11.32 7 12 7 C11.67 7.99 11.34 8.98 11 10 C9.2925002 8.71937515 7.62626404 7.38232443 6 6 C6 5.34 6 4.68 6 4 C5.195625 3.71125 4.39125 3.4225 3.5625 3.125 C1 2 1 2 0 0 Z " fill="#0DA6D9" transform="translate(202,88)"/>
<path d="M0 0 C1.62276158 2.43414237 2.61744792 4.31319446 3.625 7 C3.88539063 7.680625 4.14578125 8.36125 4.4140625 9.0625 C5 11 5 11 5 14 C4.01 13.67 3.02 13.34 2 13 C2 11.68 2 10.36 2 9 C1.34 8.67 0.68 8.34 0 8 C0 5.36 0 2.72 0 0 Z " fill="#212C58" transform="translate(906,141)"/>
<path d="M0 0 C7 3 7 3 14 6 C14 6.33 14 6.66 14 7 C8.72676192 7.68041782 4.60611289 5.24786337 0 3 C0 2.01 0 1.02 0 0 Z " fill="#0DA8DB" transform="translate(68,144)"/>
<path d="M0 0 C5.94 3.465 5.94 3.465 12 7 C11.01 7.66 10.02 8.32 9 9 C9 8.34 9 7.68 9 7 C8.46375 6.896875 7.9275 6.79375 7.375 6.6875 C4.37497956 5.81907303 1.7620465 4.44379704 -1 3 C-0.67 2.01 -0.34 1.02 0 0 Z " fill="#202D54" transform="translate(344,135)"/>
<path d="M0 0 C1.32 0.33 2.64 0.66 4 1 C4.66 3.64 5.32 6.28 6 9 C5.01 9.495 5.01 9.495 4 10 C3.32845067 8.71086513 2.66291141 7.41859796 2 6.125 C1.62875 5.40570313 1.2575 4.68640625 0.875 3.9453125 C0 2 0 2 0 0 Z " fill="#222D59" transform="translate(1048,133)"/>
<path d="M0 0 C0.89203125 0.01804687 1.7840625 0.03609375 2.703125 0.0546875 C3.71632813 0.08949219 3.71632813 0.08949219 4.75 0.125 C1.7030371 1.81933918 -1.07821466 2.61967112 -4.5 3.25 C-5.83804688 3.50136719 -5.83804688 3.50136719 -7.203125 3.7578125 C-7.87859375 3.87898438 -8.5540625 4.00015625 -9.25 4.125 C-9.25 3.465 -9.25 2.805 -9.25 2.125 C-6.03817851 0.21891902 -3.71117397 -0.09766247 0 0 Z " fill="#28AACF" transform="translate(260.25,120.875)"/>
<path d="M0 0 C2.02408755 0.09002398 4.04544287 0.24641038 6.0625 0.4375 C7.71958984 0.59025391 7.71958984 0.59025391 9.41015625 0.74609375 C10.26480469 0.82988281 11.11945313 0.91367188 12 1 C12 1.33 12 1.66 12 2 C10.39773045 2.22245393 8.79303233 2.42746669 7.1875 2.625 C6.29417969 2.74101562 5.40085937 2.85703125 4.48046875 2.9765625 C2 3 2 3 -1 1 C-0.67 0.67 -0.34 0.34 0 0 Z " fill="#202F58" transform="translate(111,226)"/>
<path d="M0 0 C0.99 0 1.98 0 3 0 C1.54955729 4.10958767 -0.51110752 7.43258745 -3 11 C-3.75 9.4375 -3.75 9.4375 -4 7 C-2.86915563 4.49713591 -1.47860484 2.32992278 0 0 Z " fill="#1AA390" transform="translate(220,182)"/>
<path d="M0 0 C4.10958767 1.45044271 7.43258745 3.51110752 11 6 C10.34 6.66 9.68 7.32 9 8 C8.278125 7.38125 7.55625 6.7625 6.8125 6.125 C4.21618062 4.16333647 2.05328334 3.04684 -1 2 C-0.67 1.34 -0.34 0.68 0 0 Z " fill="#222F51" transform="translate(367,123)"/>
<path d="M0 0 C3.29078593 2.79716804 5.06305458 6.19528578 7 10 C6.67 10.66 6.34 11.32 6 12 C3.04250209 8.53258866 0.92151848 5.13126473 -1 1 C-0.67 0.67 -0.34 0.34 0 0 Z " fill="#242D58" transform="translate(1073,139)"/>
<path d="M0 0 C0.99 1.32 1.98 2.64 3 4 C-0.75 7 -0.75 7 -3 7 C-3 7.66 -3 8.32 -3 9 C-4.65 9 -6.3 9 -8 9 C-7.401875 8.566875 -6.80375 8.13375 -6.1875 7.6875 C-3.02346954 5.2466765 -1.28201062 3.84603187 0 0 Z " fill="#232F56" transform="translate(377,135)"/>
<path d="M0 0 C2.94721162 2.74395564 5.19168608 5.38337216 7 9 C6.67 9.66 6.34 10.32 6 11 C5.34 10.67 4.68 10.34 4 10 C4 9.01 4 8.02 4 7 C3.01 6.67 2.02 6.34 1 6 C0.67 4.02 0.34 2.04 0 0 Z " fill="#219EC3" transform="translate(223,54)"/>
<path d="M0 0 C1.32 0 2.64 0 4 0 C4.144375 0.7425 4.28875 1.485 4.4375 2.25 C4.90187492 4.52027739 5.41863569 6.75759479 6 9 C0.42857143 3.85714286 0.42857143 3.85714286 0 0 Z " fill="#1A2F56" transform="translate(43,175)"/>
<path d="M0 0 C0.66 0.33 1.32 0.66 2 1 C0.84414715 4.91211733 -0.35534962 7.8745041 -3 11 C-3.33 9.35 -3.66 7.7 -4 6 C-3.01 5.67 -2.02 5.34 -1 5 C-0.67 3.35 -0.34 1.7 0 0 Z " fill="#1AA88F" transform="translate(226,171)"/>
<path d="M0 0 C3 1 3 1 5 3 C5 3.99 5 4.98 5 6 C5.66 6 6.32 6 7 6 C6.67 6.99 6.34 7.98 6 9 C2.91910327 6.22719294 1.31224548 3.93673644 0 0 Z " fill="#1F2C55" transform="translate(543,124)"/>
<path d="M0 0 C3.96 0 7.92 0 12 0 C7.60171741 2.1991413 4.81449408 2.51855059 0 3 C0 2.01 0 1.02 0 0 Z " fill="#15A2A7" transform="translate(112,79)"/>
<path d="M0 0 C-3.20380017 2.13586678 -4.01939967 2.23132175 -7.6875 2.125 C-8.89986328 2.09792969 -8.89986328 2.09792969 -10.13671875 2.0703125 C-11.05904297 2.03550781 -11.05904297 2.03550781 -12 2 C-8.63758153 -1.36241847 -4.39594827 -1.5216744 0 0 Z " fill="#01789E" transform="translate(124,81)"/>
<path d="M0 0 C4.1666604 0.47348414 6.92884715 1.04696841 10 4 C10 4.66 10 5.32 10 6 C8.0625 5.625 8.0625 5.625 6 5 C5.67 4.34 5.34 3.68 5 3 C2.47266765 2.34444881 2.47266765 2.34444881 0 2 C0 1.34 0 0.68 0 0 Z " fill="#263158" transform="translate(1059,71)"/>
<path d="M0 0 C0.99 0 1.98 0 3 0 C5 3 5 3 5 6 C4.01 6 3.02 6 2 6 C2 5.34 2 4.68 2 4 C1.34 3.67 0.68 3.34 0 3 C0 2.01 0 1.02 0 0 Z " fill="#152E5F" transform="translate(218,49)"/>
<path d="M0 0 C-0.33 1.65 -0.66 3.3 -1 5 C-2.875 4.6875 -2.875 4.6875 -5 4 C-5.66 3.01 -6.32 2.02 -7 1 C-4 0 -4 0 0 0 Z " fill="#153F73" transform="translate(68,169)"/>
<path d="M0 0 C2 2 2 2 2 6 C-0.5 8.25 -0.5 8.25 -3 10 C-2.01 6.7 -1.02 3.4 0 0 Z " fill="#222E57" transform="translate(835,125)"/>
<path d="M0 0 C2.4375 0.6875 2.4375 0.6875 5 2 C5.8125 4.625 5.8125 4.625 6 7 C3.00675737 5.9024777 2.15389099 5.32317108 0.75 2.375 C0.5025 1.59125 0.255 0.8075 0 0 Z " fill="#1EADD0" transform="translate(9,124)"/>
<path d="M0 0 C0 0.66 0 1.32 0 2 C-2.40545638 3.20272819 -3.94996953 3.10071472 -6.625 3.0625 C-7.85089844 3.04896484 -7.85089844 3.04896484 -9.1015625 3.03515625 C-10.04128906 3.01775391 -10.04128906 3.01775391 -11 3 C-7.13828168 1.00255949 -4.44822596 0 0 0 Z " fill="#16A1CF" transform="translate(198,62)"/>
<path d="M0 0 C0.99 1.32 1.98 2.64 3 4 C1.35 5.65 -0.3 7.3 -2 9 C-2.99 8.67 -3.98 8.34 -5 8 C-4.360625 7.608125 -3.72125 7.21625 -3.0625 6.8125 C-0.56221181 4.61527704 -0.35049575 3.24208567 0 0 Z " fill="#133155" transform="translate(207,196)"/>
<path d="M0 0 C3.14688078 1.57344039 4.79965407 4.27851951 7 7 C6.67 7.66 6.34 8.32 6 9 C3.69 6.69 1.38 4.38 -1 2 C-0.67 1.34 -0.34 0.68 0 0 Z " fill="#222C54" transform="translate(58,193)"/>
<path d="M0 0 C-3.20380017 2.13586678 -4.01939967 2.23132175 -7.6875 2.125 C-8.89986328 2.09792969 -8.89986328 2.09792969 -10.13671875 2.0703125 C-11.05904297 2.03550781 -11.05904297 2.03550781 -12 2 C-7.66032699 -0.21504143 -4.80574417 -1.54470348 0 0 Z " fill="#114D84" transform="translate(80,167)"/>
<path d="M0 0 C2 2 2 2 4 5 C2.02 5.99 0.04 6.98 -2 8 C-1.125 2.25 -1.125 2.25 0 0 Z " fill="#1C295F" transform="translate(826,149)"/>
<path d="M0 0 C1.21236328 0.04060547 1.21236328 0.04060547 2.44921875 0.08203125 C3.06410156 0.11683594 3.67898437 0.15164062 4.3125 0.1875 C0.27957255 2.4219598 -3.13717434 2.73246743 -7.6875 3.1875 C-5.26849268 0.20484049 -3.789448 -0.16475861 0 0 Z " fill="#00749D" transform="translate(187.6875,137.8125)"/>
<path d="M0 0 C-0.33 0.66 -0.66 1.32 -1 2 C-3.06640625 2.4140625 -3.06640625 2.4140625 -5.5625 2.625 C-6.38878906 2.69976562 -7.21507812 2.77453125 -8.06640625 2.8515625 C-9.02353516 2.92503906 -9.02353516 2.92503906 -10 3 C-6.93361469 -0.59474709 -4.63005752 -0.26207873 0 0 Z " fill="#00749C" transform="translate(222,130)"/>
<path d="M0 0 C2.79872437 2.52788007 4.45773019 4.20411134 5 8 C4.01 8 3.02 8 2 8 C2 6.68 2 5.36 2 4 C1.34 4 0.68 4 0 4 C0 2.68 0 1.36 0 0 Z " fill="#213056" transform="translate(560,119)"/>
<path d="M0 0 C3.08089673 2.77280706 4.68775452 5.06326356 6 9 C5.01 8.67 4.02 8.34 3 8 C2.67 7.01 2.34 6.02 2 5 C1.01 4.34 0.02 3.68 -1 3 C-0.67 2.01 -0.34 1.02 0 0 Z " fill="#20A6C4" transform="translate(251,97)"/>
<path d="M0 0 C0.99 0 1.98 0 3 0 C4.76462683 3.08809695 5 4.23312136 5 8 C4.34 8 3.68 8 3 8 C2.01 5.36 1.02 2.72 0 0 Z " fill="#212E53" transform="translate(1074,83)"/>
<path d="M0 0 C2 0 2 0 3.6875 1.25 C4.120625 1.8275 4.55375 2.405 5 3 C4.6875 5.1875 4.6875 5.1875 4 7 C2.35 5.02 0.7 3.04 -1 1 C-0.67 0.67 -0.34 0.34 0 0 Z " fill="#1F2A50" transform="translate(66,201)"/>
<path d="M0 0 C3.0916909 2.52956528 3.90931332 5.22454612 5 9 C4.34 9 3.68 9 3 9 C1.68 6.36 0.36 3.72 -1 1 C-0.67 0.67 -0.34 0.34 0 0 Z " fill="#243055" transform="translate(1068,130)"/>
<path d="M0 0 C1.485 0.99 1.485 0.99 3 2 C2.34 2 1.68 2 1 2 C1.66 3.98 2.32 5.96 3 8 C1.68 7.67 0.36 7.34 -1 7 C-0.67 4.69 -0.34 2.38 0 0 Z " fill="#1F2C55" transform="translate(1065,122)"/>
<path d="M0 0 C0 1.32 0 2.64 0 4 C-0.66 4 -1.32 4 -2 4 C-2 3.34 -2 2.68 -2 2 C-4.97 1.505 -4.97 1.505 -8 1 C-4.93251126 -0.86240388 -3.40254489 -1.2151946 0 0 Z " fill="#1FACD1" transform="translate(18,106)"/>
<path d="M0 0 C-0.99 0.33 -1.98 0.66 -3 1 C-3.33 1.66 -3.66 2.32 -4 3 C-6.0625 3.625 -6.0625 3.625 -8 4 C-8 3.01 -8 2.02 -8 1 C-4.93251126 -0.86240388 -3.40254489 -1.2151946 0 0 Z " fill="#11A2CC" transform="translate(222,57)"/>
<path d="M0 0 C0.33 0.66 0.66 1.32 1 2 C3.01669827 3.13350534 3.01669827 3.13350534 5 4 C4.34 5.32 3.68 6.64 3 8 C2.34 8 1.68 8 1 8 C0.67 5.36 0.34 2.72 0 0 Z " fill="#1B9A96" transform="translate(208,192)"/>
<path d="M0 0 C2 2 2 2 2 4 C1.34 4 0.68 4 0 4 C-0.33 4.99 -0.66 5.98 -1 7 C-1.66 7 -2.32 7 -3 7 C-1.125 1.125 -1.125 1.125 0 0 Z " fill="#1C2855" transform="translate(626,89)"/>
<path d="" fill="#000000" transform="translate(0,0)"/>
</svg>
